<?xml version="1.0" encoding="utf-8"?>
<!-- Generator: Adobe Illustrator 24.1.0, SVG Export Plug-In . SVG Version: 6.00 Build 0)  -->
<svg version="1.1" id="Layer_1" xmlns="http://www.w3.org/2000/svg" xmlns:xlink="http://www.w3.org/1999/xlink" x="0px" y="0px"
	 width="535.9px" height="532.5px" viewBox="0 0 535.9 532.5" style="enable-background:new 0 0 535.9 532.5;" xml:space="preserve"
	>
<style type="text/css">
	.st0{fill:#C45800;}
	.st1{fill:#FF7D00;}
	.st2{fill:#FFFFFF;}
	.st3{fill:#4440B0;}
</style>
<g>
	<path class="st0" d="M477.3,136.9c-3.5-5.5-7.1-10.7-10.8-15.7c47.9,79.5,32,178.1-38.7,242.3c-12.6,11.5-18.4,22.5-16.8,39.4
		c2,20.7,1.7,41.6,2.4,62.4c0.4,10.9-0.6,21.2-12.2,26.3c-11.6,5.2-19.9-0.5-27.5-8.6c-16.1-17.3-32.5-34.2-48.2-51.8
		c-6.1-6.8-12-9-21.4-7.4c-63.5,10.6-123.9,1-178.4-33.9c-24.6-15.8-45.3-34-61.4-54.8c17.1,29.3,42.6,54.1,74.8,74.7
		c54.5,34.9,114.9,44.5,178.4,33.9c9.4-1.6,15.3,0.6,21.4,7.4c15.7,17.6,32.1,34.5,48.2,51.8c7.6,8.1,15.9,13.8,27.5,8.6
		c11.6-5.2,12.6-15.5,12.2-26.3c-0.7-20.8-0.4-41.7-2.4-62.4c-1.7-16.9,4.1-27.9,16.8-39.4C513.1,318.1,528.3,217,477.3,136.9z"/>
	<g>
		<path class="st1" d="M278.3,11.3c66.9,2.4,138.5,33.4,185.8,107.7c51,80.2,35.8,181.2-36.2,246.5c-12.6,11.5-18.4,22.5-16.8,39.4
			c2,20.7,1.7,41.6,2.4,62.4c0.4,10.9-0.6,21.2-12.2,26.3c-11.6,5.2-19.9-0.5-27.5-8.6c-16.1-17.3-32.5-34.2-48.2-51.8
			c-6.1-6.8-12-9-21.4-7.4c-63.5,10.6-123.9,1-178.4-33.9C60.5,350,22.7,290.8,26.6,211c3.8-78.2,46.3-132.7,112.9-170
			C176.2,20.5,216.1,11.4,278.3,11.3z M369.4,419.2c0-12,1-20.2-0.2-28c-3.2-21.2,4.7-34.8,21.8-48.5c76.1-60.8,82-163.5,15.1-231.2
			c-71.8-72.6-197.6-79.3-276.8-14.6C41.1,168.9,48,292.7,143.8,354.5c51.6,33.3,107.8,41.5,167,27.9c14.3-3.3,24.3-0.5,33.5,10.2
			C351.3,400.9,359.2,408.5,369.4,419.2z"/>
		<path class="st2" d="M369.4,419.2c-10.2-10.7-18.1-18.3-25.1-26.6c-9.2-10.7-19.1-13.5-33.5-10.2c-59.2,13.6-115.4,5.4-167-27.9
			C48,292.7,41.1,168.9,129.4,96.8c79.1-64.6,205-58,276.8,14.6c66.9,67.7,61,170.4-15.1,231.2c-17.2,13.7-25,27.3-21.8,48.5
			C370.4,399,369.4,407.1,369.4,419.2z M184.2,186.2c11.9-2.3,21.3-3.6,30.3-6.1c8.4-2.3,16.2-6.8,24.6-8.9
			c13.1-3.2,21.6,0.4,25.2,9.2c3.6,8.8,0.8,19.2-9.5,25.5c-9.2,5.6-20,8.5-29.7,13.4c-3.9,1.9-9.4,5.7-9.6,8.9
			c-1,15.1-0.5,30.3-0.5,45.2c25.9,0,49.1,0,74.4,0c-6.1-22.3,5-33,22.8-39.4c0.5-0.2,0.9-0.6,1.4-0.9c22-15.3,34.2-36.4,30.4-63.1
			c-3.9-26.9-23.4-40.9-48.5-47.7c-30-8.1-59.8-5.1-89.3,2.8c-22.2,5.9-22.2,6.1-22.2,28.5C184.2,162.8,184.2,172.1,184.2,186.2z
			 M212.7,281.2c0,17.3,0,32.8,0,48.5c26.9,0,52.4,0,78.5,0c0-16.8,0-32.2,0-48.5C264.7,281.2,239.7,281.2,212.7,281.2z"/>
		<path class="st3" d="M184.2,186.2c0-14.1,0-23.4,0-32.7c0-22.4,0-22.6,22.2-28.5c29.5-7.8,59.2-10.9,89.3-2.8
			c25.1,6.8,44.6,20.8,48.5,47.7c3.9,26.7-8.4,47.8-30.4,63.1c-0.4,0.3-0.9,0.9-2,1.3c-14.4,6.2-28.3,16.8-22.2,39
			c-25.4,0-48.5,0-74.4,0c0-14.9-0.6-30.1,0.5-45.2c0.2-3.2,5.7-7,9.6-8.9c9.7-4.9,20.5-7.8,29.7-13.4c10.2-6.3,13.1-16.6,9.5-25.5
			c-3.6-8.7-12.2-12.4-25.2-9.2c-8.4,2.1-16.2,6.6-24.6,8.9C205.4,182.6,196,183.9,184.2,186.2z"/>
		<path class="st3" d="M212.7,281.2c27,0,52,0,78.5,0c0,16.2,0,31.7,0,48.5c-26.1,0-51.6,0-78.5,0
			C212.7,313.9,212.7,298.5,212.7,281.2z"/>
	</g>
</g>
</svg>
