<?xml version="1.0" encoding="utf-8"?>
<!-- Generator: Adobe Illustrator 25.4.1, SVG Export Plug-In . SVG Version: 6.00 Build 0)  -->
<svg version="1.1" id="Capa_1" xmlns="http://www.w3.org/2000/svg" xmlns:xlink="http://www.w3.org/1999/xlink" x="0px" y="0px"
	 viewBox="0 0 1000 1000" style="enable-background:new 0 0 1000 1000;" xml:space="preserve">
<style type="text/css">
	.st0{display:none;}
	.st1{display:inline;}
	.st2{font-family:'Kabel-Book';}
	.st3{font-size:47.4582px;}
	.st4{font-size:46.1236px;}
	.st5{font-size:44.3861px;}
	.st6{font-size:42.755px;}
	.st7{fill:#EEEDF5;}
	.st8{fill:#FFE3CD;}
	.st9{fill:#201815;}
	.st10{fill:#FFFEFD;}
	.st11{fill:#724D3D;}
	.st12{fill:#FFFFFF;}
	.st13{opacity:0.39;}
	.st14{fill:#FF755D;}
	.st15{fill:#F6B4D0;}
	.st16{fill:#FBFBFB;}
	.st17{fill:#FF564D;}
	.st18{fill:#FF7471;}
	.st19{fill:#E2322D;}
	.st20{fill:#B70E0C;}
	.st21{fill:#1D1D1B;}
	.st22{fill:#A03C6E;}
	.st23{fill:#2AD3A6;}
	.st24{fill:#96E0C9;}
	.st25{fill:#1D9372;}
	.st26{fill:#167054;}
	.st27{fill:#20A078;}
	.st28{fill:#BC66FF;}
	.st29{fill:#CB94FF;}
	.st30{fill:#6C3D99;}
	.st31{fill:#F9EB6E;}
	.st32{fill:#8DE2BE;}
	.st33{fill:#E88064;}
	.st34{fill:#FF5A9D;}
	.st35{fill:#FF8ABA;}
	.st36{fill:#FF5A9D;fill-opacity:0;}
	.st37{fill:#FF564D;fill-opacity:0;}
	.st38{fill:#2AD3A6;fill-opacity:0;}
	.st39{fill:#BC66FF;fill-opacity:0;}
</style>
<g id="peso" class="st0">
	<g class="st1">
		<g>
			<path d="M837.6,493.6c0-1.8,0.2-3.6,0.7-5.3c0.1-0.4,0.2-0.8,0.3-1.2c-0.2,0.8,0.1-0.3,0.2-0.5c0.3-0.9,0.7-1.7,1.1-2.5
				c0.4-0.8,0.8-1.5,1.3-2.2c0.2-0.4,0.5-0.7,0.7-1.1c0.1-0.2,0.3-0.4,0.4-0.6c0.1-0.1,0.6-0.8,0.1-0.2c1.2-1.4,2.4-2.7,3.8-3.9
				c0.7-0.6,1.3-1.1,2.1-1.7c0.4-0.3,0.7-0.5,1.1-0.8c0,0,0.6-0.4,0.2-0.1c-0.4,0.3,0.4-0.3,0.5-0.3c1.7-1,3.6-1.9,5.4-2.7
				c0.9-0.4,1.9-0.7,2.9-1.1c0.2-0.1,1.5-0.5,0.8-0.3c0.6-0.2,1.1-0.3,1.7-0.5c2.1-0.5,4.1-0.9,6.2-1.2c2.1-0.3,4.2-0.5,6.4-0.7
				c0.5,0,1-0.1,1.5-0.1c0.3,0,0.6,0,0.9,0c0.5,0,0,0-0.1,0c1.1,0,2.3-0.1,3.4-0.1c4.9-0.1,9.7,0.1,14.6,0.2
				c9.5,0.3,19,0.6,28.5-0.2c8.8-0.8,17.7-2.7,25.8-6.5c7.2-3.4,13.4-8.3,18.3-14.6c5-6.5,7.8-14.4,7.6-22.6
				c-0.2-8.9-5.2-16.5-11.6-22.4c-6.2-5.7-13.7-10.2-21.1-14.3c-7.9-4.4-16.3-8.1-24.8-11.2c-2-0.7-4.1-1.4-6.2-2.1
				c-2-0.6-5.2,0-5.5,2.6s2,4.7,4.3,5.5c4.1,1.3,8.1,2.7,12.1,4.3c0.1,0.1,1,0.4,0.4,0.2c-0.6-0.2,0.1,0,0.2,0.1
				c0.5,0.2,1,0.4,1.4,0.6c1,0.4,2.1,0.9,3.1,1.4c1.9,0.9,3.8,1.8,5.7,2.7c3.8,1.9,7.6,4,11.2,6.2c1.9,1.1,3.7,2.3,5.5,3.5
				c0.2,0.1,0.3,0.2,0.5,0.3c0.6,0.4-0.8-0.6-0.2-0.1c0.4,0.3,0.8,0.5,1.1,0.8c0.8,0.5,1.5,1.1,2.2,1.6c1.5,1.2,3,2.4,4.4,3.7
				c0.3,0.3,0.7,0.6,1,1c0.1,0.1,0.5,0.6,0.1,0.1c-0.5-0.5,0.1,0.1,0.2,0.2c0.7,0.7,1.3,1.5,1.9,2.2c0.5,0.7,0.9,1.4,1.4,2
				c0.4,0.6-0.4-0.7,0-0.1c0.1,0.2,0.2,0.3,0.3,0.5c0.2,0.4,0.5,0.9,0.7,1.4c0.4,0.8,0.7,1.6,1,2.5c0,0.1,0.2,0.7,0.1,0.2
				c-0.2-0.6,0.1,0.4,0.1,0.5c0.1,0.6,0.3,1.2,0.4,1.8c0.4,2.3,0.4,3.7,0.2,5.9c-0.2,1.9-0.6,3.8-1.2,5.7c-0.2,0.8,0.1-0.4-0.1,0.4
				c-0.1,0.4-0.3,0.8-0.5,1.2c-0.3,0.9-0.7,1.7-1.1,2.5c-0.8,1.6-1.7,3.2-2.8,4.6c-0.2,0.4-0.5,0.7-0.8,1.1
				c-0.5,0.6,0.2-0.3-0.3,0.3c-0.6,0.7-1.2,1.4-1.8,2.1c-1.2,1.3-2.6,2.6-4,3.8c-1.4,1.1-2.8,2.2-4.2,3.1c0.7-0.4-0.3,0.2-0.5,0.3
				c-0.4,0.2-0.8,0.4-1.1,0.7c-0.9,0.5-1.8,1-2.7,1.4c-1.9,0.9-3.8,1.7-5.7,2.4c-1,0.4-2,0.7-2.9,1c-0.5,0.1-0.1,0,0,0
				c-0.3,0.1-0.6,0.2-0.9,0.2c-0.6,0.2-1.1,0.3-1.7,0.4c-4.1,1-8.3,1.7-12.5,2.1c-1,0.1-2.1,0.2-3.1,0.3c-0.5,0-1,0.1-1.6,0.1
				c-0.2,0-0.4,0-0.7,0c-0.8,0.1,1.1,0-0.3,0c-2.3,0.1-4.5,0.1-6.8,0.1c-4.7,0-9.4-0.2-14.1-0.3c-9.2-0.3-18.5-0.6-27.6,0.5
				c-8.5,1-17,3.6-24,8.6c-6.1,4.4-10.8,10.9-12.6,18.2c-0.4,1.7-0.6,3.4-0.6,5.1c0,2.6,1.8,4.8,4.3,5.5
				C833.9,496.7,837.5,496.3,837.6,493.6L837.6,493.6z"/>
		</g>
	</g>
	<text transform="matrix(1 0 0 1 762.9116 544.8505)" class="st1 st2 st3">Hasta 8kg</text>
</g>
<g id="curioso">
	<g>
		<g>
			<path d="M292.3,244.2c-4.1,8.9-2.1,19.1,3.1,27.1c6.4,9.9,16.6,16.2,27.9,19.1c10.2,2.7,21.2,2.5,31.6,1.1
				c9.5-1.2,18.9-3.6,27.8-7.2c17.2-7,33.1-18.9,42.1-35.4c5.1-9.4,7.5-19.8,9.7-30.1c2.2-10.5,4.2-21.3,9.1-31
				c8.6-17.2,26.5-28.9,45.7-30c2.3-0.1,4.7-0.1,7,0.1c2.3,0.2,1.2-2.7,0.5-3.7c-1.5-1.9-3.6-3.1-6-3.3
				c-18.9-1.5-38.3,7.3-49.9,22.4c-13.1,17-13,39.5-19.6,59.2c-5.9,17.5-18.9,31.3-34.9,40.2c-16.3,9-35.4,13.6-54,12.9
				c-2.5-0.1-4.7-0.3-7.4-0.7c-1.2-0.2-2.4-0.4-3.6-0.7c-0.7-0.1-1.3-0.3-2-0.5c-0.3-0.1-0.5-0.1-0.8-0.2c0.7,0.2-0.5-0.2-0.5-0.2
				c-1.2-0.4-2.3-0.8-3.5-1.3c-0.3-0.1-0.5-0.2-0.8-0.3c0,0-1.2-0.5-0.6-0.2s-0.6-0.3-0.5-0.3c-0.4-0.2-0.7-0.4-1.1-0.6
				c-0.5-0.3-1.1-0.6-1.6-0.9c-0.3-0.2-1.1-0.5-0.1-0.1c-0.2-0.1-0.4-0.3-0.6-0.4c-0.4-0.3-0.9-0.6-1.3-0.9
				c-0.2-0.2-0.5-0.3-0.7-0.6c0.2,0.1,0.3,0.3,0.5,0.4c-0.2-0.2-0.4-0.3-0.5-0.5c-0.4-0.3-0.7-0.6-1-1c-0.2-0.2-0.4-0.4-0.6-0.6
				s-0.8-0.7,0,0c-0.9-0.7-1.6-1.9-2.2-2.8c-0.1-0.2-0.3-0.4-0.4-0.6c0.5,0.7,0.1,0.1,0,0c-0.3-0.5-0.6-1-0.9-1.5
				c-0.6-1-1.1-2-1.5-3c-0.3-0.6,0.3,0.8-0.1-0.3c-0.1-0.2-0.2-0.4-0.2-0.7c-0.2-0.6-0.4-1.1-0.5-1.7c-0.3-1.1-0.6-2.1-0.7-3.2
				c-0.3-1.9-0.3-3.9-0.1-5.9c0.2-2.1,0.8-4.1,1.7-6c0.9-1.8-1.3-3.9-2.6-4.9C296.9,244.7,293.1,242.4,292.3,244.2L292.3,244.2z"/>
		</g>
	</g>
	<text transform="matrix(1 0 0 1 445.7205 123.6748)" class="st2 st4">Encantador, travieso</text>
	<text transform="matrix(1 0 0 1 522.6205 178.9748)" class="st2 st4">y cariñoso</text>
</g>
<g id="alto" class="st0">
	<g class="st1">
		<g>
			<path d="M226.7,513.3c-1.6-6.4,1.6-13.5,6.1-18.3c5.3-5.7,12.8-8.8,20-11.3c6.9-2.3,14-4.3,20.7-7.2c6.1-2.7,12-6,17.1-10.3
				c5-4.2,9.1-9.6,11.4-15.7c2.5-6.5,2.6-13.7,1.2-20.5c-3.2-15.2-13.1-29.3-26.2-37.6c-13.3-8.5-29-12-44.4-14.2
				c-2-0.3-3.9-0.5-5.9-0.8c-1.6-0.2-0.2,3.3,0,3.9c0.5,1.2,1.1,2.3,1.9,3.4c0.4,0.5,1.1,1.5,1.8,1.6c15.1,1.9,30.5,4.5,44.1,11.4
				c6.2,3.2,11.6,7.2,16,12.3c0.1,0.1,0.2,0.3,0.4,0.4c-0.4-0.5,0,0,0.1,0.1c0.2,0.3,0.5,0.6,0.7,0.9c0.5,0.7,1,1.4,1.6,2.1
				c-0.5-0.7,0.1,0.1,0.3,0.4c0.2,0.3,0.4,0.6,0.6,0.9c0.1,0.2,0.5,1,0.7,1.1c0,0-0.5-0.9-0.2-0.3c0.1,0.2,0.2,0.4,0.4,0.7
				c0.2,0.4,0.4,0.8,0.6,1.2c0.1,0.2,0.2,0.3,0.2,0.5c0.3,0.5-0.2-0.3-0.2-0.4c0.2,0.8,0.7,1.6,1,2.4s-0.2-0.6,0.1,0.2
				c0.1,0.4,0.3,0.8,0.4,1.2c0.1,0.3,0.2,0.7,0.3,1c0.1,0.2,0.1,0.5,0.2,0.7c0.2,0.6-0.1-0.6,0,0.1c1.5,6,1.4,12.4-0.7,18.5
				c-2.1,6-5.9,11-10.7,15.2c-10.4,9.1-23.7,13.2-36.6,17.4c-7.1,2.3-14.4,5.1-20,10.2c-5.1,4.6-8.8,11.1-8.9,18.1
				c0,1.8,0.2,3.7,0.7,5.4c0.6,2.2,1.6,4.6,3.3,6.3c0.3,0.3,1,1.1,1.6,0.8C227,514.8,226.8,513.6,226.7,513.3L226.7,513.3z"/>
		</g>
	</g>
	<text transform="matrix(1 0 0 1 10.7519 380.3459)" class="st1 st2 st5">Hasta 33cm</text>
</g>
<g id="idioma">
	<g>
		<g>
			<path d="M635.2,779.2c-6-11.4-15.9-20.5-27.5-26.1c-12.9-6.2-27.9-8.2-41.9-5.4c-12.9,2.6-25.1,9.2-33.8,19.2
				c-4.8,5.5-8.2,12.1-11.7,18.5c-3.3,6.2-7,12.2-11.8,17.4c-4.5,4.9-9.9,9.2-16.1,11.6c-1.5,0.6-3.1,1.1-4.6,1.5
				c-0.8,0.2-1.6,0.3-2.4,0.5c-0.4,0.1-0.8,0.1-1.2,0.2c-0.5,0.1,0,0,0,0c-0.3,0-0.5,0-0.8,0.1c-0.4,0-0.8,0-1.2,0.1
				c-0.3,0-1.2,0-0.4,0c-0.4,0-0.8,0-1.2,0c-0.2,0-0.4,0-0.6,0c-0.7,0,0.9,0.1,0.1,0c-0.4-0.1-0.8-0.1-1.2-0.2c-0.2,0-0.5,0-0.6-0.1
				c0.6,0.4,0.6,0.1,0.2,0s-0.8-0.2-1.2-0.3c-0.1,0-0.7-0.2-0.2,0s-0.3-0.1-0.4-0.1c-0.4-0.1-0.8-0.3-1.1-0.4c-0.4-0.2,0,0,0.1,0
				c-0.2-0.1-0.4-0.2-0.5-0.2c-0.8-0.4-1.6-0.8-2.3-1.2c-2.1,0.6-4.3,1.1-6.4,1.7c1.9,0.6,3.8,1.1,5.6,1.7c2.1,0.6,4.9,1.3,7,0.4
				c2-0.9-0.5-2.2-1.5-2.5c-1.9-0.6-3.8-1.1-5.6-1.7c-2-0.6-4.5-1.1-6.5-0.5c-0.4,0.1-1.1,0.3-1.2,0.8c-0.1,0.7,0.9,1.1,1.3,1.4
				c6.9,3.9,15.6,5.3,23.4,4.6c7.3-0.7,14.2-3.1,20.3-7.2c5.6-3.8,10.2-8.8,14.1-14.2c4.3-6.1,7.5-12.8,11.1-19.2
				c6.6-11.5,16.4-20.6,28.8-25.6c2.9-1.2,5.8-2.1,8.7-2.7c1.6-0.3,3.1-0.6,4.7-0.8c0.2,0,1.1-0.1,0.5-0.1c0.4,0,0.8-0.1,1.1-0.1
				c0.8-0.1,1.7-0.1,2.5-0.1c0.4,0,0.8,0,1.1,0c0.2,0,0.4,0,0.6,0c-0.1,0-0.8,0-0.3,0c0.9,0,1.8,0.1,2.7,0.1c0.2,0,1.4,0.1,0.6,0
				c-0.7,0,0.4,0,0.6,0.1c0.8,0.1,1.6,0.2,2.4,0.3c0.2,0,0.4,0.1,0.6,0.1c0.6,0.1-0.4-0.1-0.4-0.1c0.3,0.1,0.8,0.1,1.1,0.2
				c0.8,0.2,1.6,0.4,2.4,0.6c0.2,0,1.2,0.3,0.7,0.2c-0.6-0.2,0.5,0.2,0.7,0.2c0.8,0.2,1.5,0.5,2.3,0.8c0.7,0.2,1.4,0.5,2.1,0.8
				c-0.6-0.3,0.2,0.1,0.4,0.2c0.4,0.2,0.8,0.3,1.2,0.5c1.4,0.6,2.8,1.3,4.2,2.1c1.3,0.7,2.2,1.3,3.6,2.2c1.3,0.9,2.5,1.8,3.8,2.7
				c4.9,3.8,9,8.5,12.3,13.7c0.8,1.3,1.6,2.7,2.3,4c0.3,0.6,1.6,1.1,2.2,1.3c1.2,0.4,2.6,0.7,3.8,0.7
				C632.2,780.7,636,780.8,635.2,779.2L635.2,779.2z"/>
		</g>
	</g>
	<text transform="matrix(1 0 0 1 222.2956 804.4576)" class="st2 st6">China: Lo-sze</text>
	<text transform="matrix(1 0 0 1 222.2956 855.7576)" class="st2 st6">Finlandia: Mopsi</text>
	<text transform="matrix(1 0 0 1 222.2956 907.0576)" class="st2 st6">España: Doguillo</text>
</g>
<g>
	<g>
		<g>
			<ellipse class="st7" cx="500" cy="623" rx="191.3" ry="32.9"/>
			<g>
				<g>
					<path class="st8" d="M515.8,402.8c-6.5,0-14.9-0.9-18.4-5c-1-1.2-1.6-2.6-1.7-4.1c-0.2-0.2-0.5-0.4-0.7-0.6
						c-4.1-3.9-15.2-14.1-11.8-31.2c2.7-14,14.8-18.9,24.2-18.9c6.6,0,12.7,2.3,15.9,5.9c6,6.8,7.3,15.6,3.6,24.3
						c4.5,6,12.4,17.4,11.9,22.4C538.1,402.6,518.1,402.8,515.8,402.8z"/>
					<path class="st9" d="M507.4,346c5.7,0,11,1.9,13.7,4.9c6.9,7.8,5.4,16.6,2.3,22.7c0,0,12.9,16.9,12.3,21.7
						c-0.3,2.5-10.4,4.5-20,4.5c-9.1,0-17.8-1.9-17.1-7c0.2-1.3-16.4-10.8-12.6-30.2C488.5,350.6,498.4,346,507.4,346 M507.4,340
						L507.4,340c-10.6,0-24.1,5.6-27.2,21.4c-3.6,18.6,8,29.6,12.6,33.8c0.3,1.7,1.1,3.3,2.3,4.6c3.5,4,10.4,6,20.7,6
						c5.1,0,10.5-0.5,14.8-1.5c3.2-0.7,10.6-2.3,11.2-8.4c0.3-2.7-0.4-6.5-6.9-16.6c-1.6-2.5-3.3-4.8-4.5-6.5
						c3.4-9.3,1.7-18.6-4.7-25.9C521.8,342.6,515,340,507.4,340L507.4,340z"/>
				</g>
				<g>
					<path class="st8" d="M381.2,611.1c-13.5,0-28.8-5-31.9-14.6c-1.6-4.8-1.3-9.2,0.8-13c1.8-3.3,4.6-5.5,7.1-7
						c-9.8-6.6-30.6-23.6-32.1-49.9c-2-34.1,24.3-48.4,25.4-49l2.5-1.3l1.5,2.4c0.2,0.2,15.3,25.3,29.5,52.2
						c26.2,49.6,26.5,62.2,24.4,67.3C405.1,606.3,394.9,611.1,381.2,611.1L381.2,611.1z"/>
					<path class="st9" d="M351.9,480.3c0,0,60.5,99.8,53.7,116.7c-3.1,7.7-13.5,11.1-24.4,11.1c-12.9,0-26.5-4.8-29-12.6
						c-4.7-14.4,11.5-18.6,11.5-18.6S330,559,328.1,526.4S351.9,480.3,351.9,480.3 M354.1,472.2l-5,2.7c-0.3,0.2-7.6,4.1-14.4,12.3
						c-6.3,7.6-13.7,20.7-12.6,39.5c1.4,24.7,18.9,41.5,29.9,49.7c-1.7,1.5-3.3,3.3-4.6,5.6c-2.5,4.5-2.8,9.9-1,15.4
						c3.8,11.5,20.7,16.7,34.8,16.7c15,0,26.2-5.6,30-14.9c1.5-3.8,2.2-10.6-5.5-29.9c-4.2-10.6-10.6-24-19-39.9
						c-14.2-26.9-29.4-52.1-29.6-52.3L354.1,472.2L354.1,472.2z"/>
				</g>
				<g>
					<path class="st8" d="M362.3,476.9c0,0-25.7,13.6-23.8,46.1c1.9,32.5,35.6,50.5,35.6,50.5s-16.2,4.3-11.5,18.6
						c4.7,14.4,46.6,18.4,53.4,1.5C422.7,576.7,362.3,476.9,362.3,476.9z"/>
				</g>
				<g>
					<path class="st8" d="M627.1,611.1c-13.7,0-23.9-4.8-27.2-13c-2-5.1-1.7-17.6,24.4-67.3c14.1-26.8,29.3-51.9,29.5-52.2l1.5-2.4
						l2.5,1.3c1.1,0.6,27.4,14.9,25.4,49c-1.5,26.3-22.3,43.3-32.1,49.9c2.5,1.5,5.4,3.7,7.1,7c2.1,3.8,2.3,8.2,0.8,13
						C655.9,606.1,640.6,611.1,627.1,611.1z"/>
					<path class="st9" d="M656.4,480.3c0,0,25.7,13.6,23.8,46.1s-35.6,50.5-35.6,50.5s16.2,4.3,11.5,18.6
						c-2.6,7.8-16.1,12.6-29,12.6c-10.8,0-21.3-3.4-24.4-11.1C596,580.1,656.4,480.3,656.4,480.3 M654.2,472.2l-3,4.9
						c-0.2,0.3-15.4,25.4-29.6,52.3c-8.4,15.9-14.8,29.3-19,39.9c-7.8,19.3-7,26.1-5.5,29.9c3.7,9.3,14.9,14.9,30,14.9
						c14.1,0,31-5.2,34.8-16.7c1.8-5.5,1.5-10.9-1-15.4c-1.2-2.3-2.8-4.1-4.6-5.6c11-8.2,28.5-25,29.9-49.7
						c1.1-18.8-6.2-31.8-12.6-39.5c-6.9-8.3-14.1-12.2-14.4-12.3L654.2,472.2L654.2,472.2z"/>
				</g>
				<g>
					<path class="st8" d="M645.2,480.3c0,0,25.7,13.6,23.8,46.1s-35.6,50.5-35.6,50.5s16.2,4.3,11.5,18.6
						c-4.7,14.4-46.6,18.4-53.4,1.5C584.7,580.1,645.2,480.3,645.2,480.3z"/>
				</g>
				<g>
					<path class="st8" d="M601.2,480.5c-76.1,0-227.6-24.3-229.2-24.6l-4.3-0.7l2.1-3.8c0.4-0.7,9.9-17.2,30.4-34
						c18.9-15.4,51.1-33.8,97.2-33.8c4.4,0,8.8,0.2,13.3,0.5c44.1,3.2,76.1,12.5,97.8,28.5c19.9,14.7,29.5,33.6,37.8,50.2
						c1.9,3.8,1,6.6,0,8.4C641.2,479.4,619.5,480.5,601.2,480.5z"/>
					<path class="st9" d="M497.5,386.7c4.2,0,8.6,0.2,13.1,0.5c96.8,7.1,115.3,41.6,133.1,77c4.9,9.7-13.4,13.3-42.5,13.3
						c-76.7,0-228.7-24.6-228.7-24.6S410,386.7,497.5,386.7 M497.5,380.7v6V380.7c-20.7,0-40.4,3.6-58.6,10.8
						c-14.6,5.7-28.2,13.7-40.5,23.7c-20.9,17.1-30.7,34.1-31.1,34.8l-4.3,7.6l8.6,1.4c1.5,0.2,153.3,24.6,229.7,24.6
						c36.2,0,44.4-5.4,47.7-10.7c2.1-3.4,2.1-7.4,0.2-11.3c-8.5-17-18.2-36.2-38.7-51.3c-22.4-16.5-54-25.7-99.3-29
						C506.4,380.9,501.9,380.7,497.5,380.7L497.5,380.7z"/>
				</g>
				<g>
					<path class="st8" d="M372.5,463.7c0,0,41.2-72.8,138-65.7c96.8,7.1,115.3,41.6,133.1,77C661.5,510.4,372.5,463.7,372.5,463.7z"
						/>
				</g>
				<g>
					<path class="st8" d="M417.3,623.1c-29.7,0-53.9-24.2-53.9-53.9V465.9c0-29.7,24.2-53.9,53.9-53.9h175.5
						c29.7,0,53.9,24.2,53.9,53.9v103.3c0,29.7-24.2,53.9-53.9,53.9L417.3,623.1L417.3,623.1z"/>
					<path class="st9" d="M592.8,415.1c28,0,50.8,22.9,50.8,50.8v103.3c0,28-22.9,50.8-50.8,50.8H417.3c-28,0-50.8-22.9-50.8-50.8
						V465.9c0-28,22.9-50.8,50.8-50.8H592.8 M592.8,409.1H417.3c-31.4,0-56.9,25.5-56.9,56.9v103.3c0,31.4,25.5,56.9,56.9,56.9
						h175.5c31.4,0,56.9-25.5,56.9-56.9V465.9C649.7,434.6,624.2,409.1,592.8,409.1L592.8,409.1z"/>
				</g>
				<g>
					<path class="st8" d="M541.2,580H469c-49.5,0-91.1-35.6-100.5-82.4c-1.3,6.5-2,13.2-2,20l0,0c0,56.4,46.1,102.5,102.5,102.5
						h72.2c56.4,0,102.5-46.1,102.5-102.5l0,0c0-6.9-0.7-13.6-2-20C632.3,544.4,590.7,580,541.2,580z"/>
				</g>
				<g>
					<circle class="st10" cx="449.6" cy="503.3" r="53.4"/>
					<path class="st9" d="M449.6,452.9c27.8,0,50.4,22.6,50.4,50.4s-22.6,50.4-50.4,50.4s-50.4-22.6-50.4-50.4
						S421.8,452.9,449.6,452.9 M449.6,446.9c-31.1,0-56.4,25.3-56.4,56.4s25.3,56.4,56.4,56.4s56.4-25.3,56.4-56.4
						S480.7,446.9,449.6,446.9L449.6,446.9z"/>
				</g>
				<g>
					<ellipse class="st11" cx="445.9" cy="501.8" rx="43.8" ry="43.8"/>
				</g>
				<g>
					
						<ellipse transform="matrix(0.9066 -0.422 0.422 0.9066 -170.5116 233.3126)" class="st9" cx="441.8" cy="501.8" rx="25.4" ry="25.4"/>
				</g>
				<circle class="st12" cx="458.6" cy="482.8" r="12.2"/>
				<g>
					<circle class="st10" cx="571.5" cy="503.3" r="53.4"/>
					<path class="st9" d="M571.5,452.9c27.8,0,50.4,22.6,50.4,50.4s-22.6,50.4-50.4,50.4c-27.8,0-50.4-22.6-50.4-50.4
						S543.6,452.9,571.5,452.9 M571.5,446.9c-31.1,0-56.4,25.3-56.4,56.4s25.3,56.4,56.4,56.4c31.1,0,56.4-25.3,56.4-56.4
						S602.6,446.9,571.5,446.9L571.5,446.9z"/>
				</g>
				<g>
					<ellipse class="st11" cx="575.2" cy="501.8" rx="43.8" ry="43.8"/>
				</g>
				<g>
					<path class="st11" d="M502.7,611.3c-18.9,0-34.3-15.4-34.3-34.3c0-12.6,7-24.2,18.2-30.2l6.2-3.3l-3.5,6.1
						c-1.9,3.4-2.9,7.1-2.9,11v4c0,12.2,9.9,22.2,22.2,22.2s22.2-9.9,22.2-22.2v-4c0-3.7-1-7.4-2.8-10.7l-3.4-6.2l6.2,3.5
						c10.9,6.1,17.6,17.5,17.6,29.9c0,18.9-15.4,34.3-34.3,34.3L502.7,611.3L502.7,611.3z"/>
					<path class="st9" d="M487.6,548.6c-2,3.5-3.2,7.6-3.2,12v4c0,13.3,10.9,24.2,24.2,24.2s24.2-10.9,24.2-24.2v-4
						c0-4.2-1.1-8.2-3-11.7c9.9,5.5,16.6,16.1,16.6,28.2c0,17.7-14.5,32.2-32.2,32.2h-11.4c-17.7,0-32.2-14.5-32.2-32.2
						C470.4,564.8,477.4,554,487.6,548.6 M498.1,538.4l-12.4,6.6c-11.9,6.4-19.3,18.6-19.3,32c0,20,16.3,36.3,36.3,36.3h11.4
						c20,0,36.3-16.3,36.3-36.3c0-13.1-7.2-25.2-18.7-31.7l-12.4-6.9l6.9,12.4c1.7,3,2.5,6.3,2.5,9.7v4c0,11.1-9,20.2-20.2,20.2
						c-11.1,0-20.2-9-20.2-20.2v-4c0-3.5,0.9-6.9,2.7-10L498.1,538.4L498.1,538.4z"/>
				</g>
				<g class="st13">
					<g>
						<path class="st11" d="M484.4,554.8c0,1,0.1,1.9,0.2,2.9c0.4-3.3,1.4-6.4,3-9.1c-1.1,0.6-2.2,1.3-3.2,2c0,0.1,0,0.1,0,0.2
							V554.8z"/>
					</g>
					<g>
						<path class="st11" d="M532.8,554.8v-4c-1-0.7-2-1.4-3-1.9c1.5,2.7,2.5,5.6,2.8,8.8C532.7,556.8,532.8,555.8,532.8,554.8z"/>
					</g>
					<g>
						<path class="st11" d="M514.1,599.5h-11.4c-16.1,0-29.5-12-31.8-27.4c-0.3,1.6-0.4,3.3-0.4,5l0,0c0,17.7,14.5,32.2,32.2,32.2
							h11.4c17.7,0,32.2-14.5,32.2-32.2l0,0c0-1.7-0.1-3.4-0.4-5C543.6,587.6,530.2,599.5,514.1,599.5z"/>
					</g>
				</g>
				<g>
					<ellipse class="st9" cx="583.3" cy="501.8" rx="25.4" ry="25.4"/>
				</g>
				<path class="st12" d="M554.3,482.8c0,6.7,5.5,12.2,12.2,12.2s12.2-5.5,12.2-12.2s-5.5-12.2-12.2-12.2
					C559.8,470.6,554.3,476,554.3,482.8z"/>
				<g>
					<path class="st11" d="M478.5,581.8c-9.3,0-17.9-4.7-21.8-12.1c-3.4-6.2-2.9-13.4,1.3-19.8c2.2-3.3,5.2-6.5,9-9.5
						c17.1-13.7,30.5-15.3,39-15.3c0.6,0,1.2,0,1.7,0c0.4,0,0.8,0,1.2,0h1.5c27.2,0,40.4,13.9,46.6,25.5c3.8,7,4,14,0.7,19.6
						c-3.6,6-10.7,9.6-19.1,9.6l0,0c-11.1,0-21.8-6.3-29.2-17c-4.2,5.3-15.5,17.9-28.5,18.8C480,581.8,479.3,581.8,478.5,581.8z"/>
					<path class="st9" d="M505.9,527.2c1.1,0,2,0,2.8,0c0.4,0,0.9,0,1.5,0c8,0,32.2,0.8,44.9,24.4c8,15-2.6,26.2-16.7,26.2
						c-9.7,0-21.1-5.3-29-18.5c0,0-13.3,19.2-28.8,20.4c-0.7,0.1-1.4,0.1-2,0.1c-16.2,0-28-14.9-18.8-28.7c1.9-2.9,4.7-6,8.5-9
						C485.7,528.1,498.9,527.2,505.9,527.2 M505.9,523.2c-8.8,0-22.6,1.6-40.2,15.7c-3.9,3.1-7.1,6.5-9.4,10
						c-4.6,7-5.1,14.9-1.4,21.8c4.3,8,13.5,13.1,23.6,13.1c0.8,0,1.6,0,2.3-0.1c12.3-0.9,23-11.4,28.3-17.6
						c7.7,9.9,18.3,15.7,29.3,15.7c9.1,0,16.9-4,20.9-10.6c3.7-6.2,3.5-13.9-0.6-21.6c-6.5-12.1-20.2-26.6-48.4-26.6h-0.9h-0.6
						c-0.3,0-0.7,0-1.1,0C507.1,523.2,506.6,523.2,505.9,523.2L505.9,523.2z"/>
				</g>
				<g class="st13">
					<path class="st11" d="M509.3,542.8c0,0-13.3,19.2-28.8,20.4c-9.4,0.7-17.6-3.6-21.6-10.1c-8.1,14,4.8,28.7,21.6,27.5
						c15.5-1.2,28.8-20.4,28.8-20.4c19.3,31.8,58.5,17.9,46.1-7C547.7,565,523.3,565.9,509.3,542.8z"/>
				</g>
				<g>
					<path class="st9" d="M499.8,543.1c0,0-5.9-6.5,0-9.7s16.4-2.9,19.5,0.9c3.1,3.9-5.5,16-10.9,16.1
						C506,550.4,499.8,543.1,499.8,543.1z"/>
				</g>
				<g>
					<path class="st11" d="M361,555.4c-0.9,0-1.8-0.1-2.7-0.3c-21.2-4.3-29.2-62.1-27.9-73.5c1.7-15,34.6-43.9,43.3-50.8
						c14.3-11.3,30.3-11.5,30.9-11.5h0.4l0.4,0.1c5.9,1.7,9.4,4.2,10.8,7.9c2.6,6.7-2.5,14.9-10.3,27.2
						c-4.6,7.3-10.4,16.5-15.5,27.1c-6.9,14.4-9.9,30.1-12.4,42.8C374.8,541.7,372.1,555.4,361,555.4L361,555.4z"/>
					<path class="st9" d="M404.7,422.3c22.1,6.2-0.1,23.1-16.9,57.9c-16,33.4-11.4,72.2-26.8,72.2c-0.7,0-1.4-0.1-2.1-0.2
						c-18-3.6-26.8-58-25.4-70.2s28.6-38,42.2-48.8C389.2,422.3,404.7,422.3,404.7,422.3 M405.5,416.2h-0.8
						c-0.7,0-17.8,0.2-32.8,12.2c-6.3,5-16.9,14.4-26.3,24.5c-16.9,18.2-17.8,25.8-18.1,28.4c-1,8.8,2.1,27.9,5.6,40.6
						c6,22,14.3,34.1,24.6,36.2c1.1,0.2,2.3,0.3,3.3,0.3c6.6,0,11.5-4,14.7-11.9c2.3-5.6,3.7-13.1,5.4-21.7
						c2.4-12.5,5.4-28,12.2-42.1c5-10.5,10.5-19.1,15.3-26.8c8.3-13.1,13.7-21.8,10.6-29.9c-1.8-4.6-6-7.8-12.8-9.7L405.5,416.2
						L405.5,416.2z"/>
				</g>
				<g class="st13">
					<path class="st11" d="M404.7,422c0,0-0.5,0-1.4,0.1c-3.8,9.5-15.2,23.6-24.8,43.7c-16.7,34.9-10.9,75.6-28.9,72
						c-1.9-0.4-3.7-1.4-5.4-2.8c3.9,9,8.9,15.7,14.8,16.9c18,3.6,12.2-37.1,28.9-72C404.6,445,426.8,428.2,404.7,422z"/>
				</g>
				<g>
					<path class="st11" d="M655.5,547.9c-10.1,0-12.5-12.3-15.5-27.9c-2.2-11.2-4.9-25.2-11-38c-4.5-9.4-9.6-17.5-13.7-24
						c-7-11-11.5-18.3-9.2-24.5c1.3-3.3,4.5-5.7,9.8-7.2l0.4-0.1h0.4c0.6,0,15,0.2,27.7,10.3c7.8,6.2,37.1,32,38.6,45.4
						c1.2,10.2-6,61.9-25,65.7C657.2,547.8,656.3,547.9,655.5,547.9z"/>
					<path class="st9" d="M616.7,429.2c0,0,13.8,0,25.8,9.6c12.1,9.6,36.2,32.5,37.5,43.4c1.2,10.8-6.6,59.2-22.6,62.4
						c-0.7,0.1-1.3,0.2-1.9,0.2c-13.7,0-9.6-34.5-23.8-64.2C616.9,449.7,597.1,434.8,616.7,429.2 M615.9,423.2l-0.8,0.2
						c-2.3,0.7-9.4,2.6-11.8,9c-2.9,7.5,2.3,15.8,9.5,27.2c4.3,6.8,9.1,14.5,13.6,23.7c5.9,12.4,8.5,25.6,10.7,37.2
						c1.5,7.7,2.8,14.3,4.8,19.4c3,7.3,7.6,11,13.7,11c1,0,2-0.1,3.1-0.3c9.4-1.9,17-12.9,22.4-32.7c4.1-14.8,5.7-30.1,5-36.4
						c-1.9-16.9-39.3-47.1-39.7-47.4c-13.6-10.8-28.9-11-29.6-11L615.9,423.2L615.9,423.2z"/>
				</g>
				<g class="st13">
					<path class="st11" d="M663.8,527.5c-16,3.2-10.8-33-25.7-64c-7.1-14.8-15.3-25.9-19.8-34.2c-1.2-0.1-2-0.1-2-0.1
						c-19.6,5.5,0.1,20.5,15,51.5s9.7,67.2,25.7,64c7.7-1.6,13.6-13.7,17.4-27.1C671.4,522.9,667.9,526.6,663.8,527.5z"/>
				</g>
				<g>
					<path class="st9" d="M455.8,443.3c4.6-0.9,9.3-1.2,14.1-1.2c4.7,0.1,9.5,0.5,14.2,1.6c1.2,0.3,2.3,0.6,3.5,0.9
						c1.1,0.4,2.3,0.7,3.4,1.2l3.3,1.4l1.6,0.6l0.8,0.3l0.8,0.2c4.2,1.4,8.7,2,13.1,1.8c4.5-0.1,9-0.9,13.4-2
						c4.5-1,8.9-2.4,13.5-3.6s9.3-2.1,14.1-2.2c2.4,0,4.8,0.1,7.1,0.5c1.2,0.2,2.3,0.5,3.5,0.9c1.1,0.4,2.2,1,3.1,1.8
						c-1-0.6-2.1-1-3.2-1.2c-1.1-0.2-2.3-0.4-3.4-0.4c-2.3-0.1-4.6,0-6.9,0.3c-4.6,0.6-9,1.7-13.4,3.2s-8.9,3-13.5,4.3
						c-4.6,1.2-9.4,2.2-14.3,2.3c-4.9,0.1-9.9-0.6-14.5-2.3l-0.9-0.3l-0.8-0.4l-1.7-0.8l-3.1-1.4c-1-0.5-2.1-0.8-3.2-1.2
						c-1.1-0.4-2.2-0.7-3.2-1.1c-4.4-1.3-8.9-2.1-13.5-2.7C465.1,443.5,460.5,443.2,455.8,443.3z"/>
				</g>
				<g>
					<path class="st9" d="M479.4,427.3c1.5-0.5,3-0.5,4.6-0.4c1.5,0.1,3.1,0.3,4.6,0.5c3,0.5,6,1.3,8.9,2.3c1.4,0.5,3,1,4.2,1.4
						c1.3,0.4,2.7,0.6,4,0.7c2.8,0.2,5.6-0.1,8.4-0.7c5.7-1.1,11.4-3.1,17.5-4.3c3-0.6,6.1-1,9.2-1c3.1,0,6.2,0.4,9.1,1.3
						c-6.1-0.2-11.9,1-17.5,2.8c-5.7,1.7-11.3,3.9-17.4,5.2c-3.1,0.6-6.3,0.9-9.6,0.5c-1.6-0.2-3.2-0.6-4.8-1.1
						c-1.6-0.6-2.8-1.3-4.2-1.9c-2.7-1.2-5.5-2.4-8.3-3.3C485.3,428.4,482.4,427.4,479.4,427.3z"/>
				</g>
				<g>
					<path class="st14" d="M491,613.2c-1.5,0-3-0.5-4.4-1.4c-3.4-2.3-5.5-5.9-6.1-10.4c-1-8.2,3.1-18,7.6-23
						c2.6-2.9,5.9-4.4,9.5-4.4c3.3,0,6.1,1.3,7.3,2c3.6,0.5,5.7,2.3,6.7,3.8c3,4.1,1.9,9.7,1.8,10.3c-0.3,1.4-1.5,2.4-2.9,2.4l0,0
						c-1,0-1.9-0.5-2.5-1.3h-0.1c-0.1,0-0.3,0-0.4,0c-0.7,2.1-2,5.7-3.7,9.4C499.7,609.1,495.5,613.2,491,613.2L491,613.2z"/>
					<path class="st9" d="M497.5,577.1c3.5,0,6.3,1.9,6.3,1.9c8.7,0.7,6.6,10.5,6.6,10.5c-0.2-1-1.4-1.3-2.6-1.3
						c-1.4,0-2.8,0.4-2.8,0.4s-6.2,21.6-14.1,21.6c-0.9,0-1.8-0.3-2.7-0.9c-9.1-6-3.9-22.2,2.1-28.8
						C492.7,577.8,495.3,577.1,497.5,577.1 M497.5,571L497.5,571c-4.5,0-8.5,1.9-11.7,5.4c-5,5.6-9.5,16.2-8.3,25.4
						c0.7,5.4,3.2,9.7,7.4,12.5c1.9,1.3,3.9,1.9,6.1,1.9c5.9,0,10.9-4.7,15.5-14.3c1.1-2.3,2-4.6,2.7-6.6c0.4,0.1,0.8,0.1,1.3,0.1
						l0,0c2.8,0,5.3-2,5.9-4.7c0.3-1.2,1.5-7.7-2.3-12.8c-1.4-1.9-3.9-4.2-8.2-4.9C504.1,572.2,501.2,571,497.5,571L497.5,571z"/>
				</g>
				<g>
					<path class="st14" d="M503.9,579c0,0-5.4-0.6-11.6,16.6"/>
					<path class="st9" d="M503.5,582h0.2h0.1l0,0h0.1c0.1,0,0.1,0,0.1,0l0,0c0,0-0.1,0-0.2,0c-0.2,0-0.5,0.1-0.7,0.2
						c-0.6,0.2-1.2,0.7-1.8,1.1c-1.2,1-2.3,2.2-3.4,3.5c-1,1.3-2,2.8-3,4.2c-0.9,1.5-1.8,3-2.6,4.6c0.4-1.7,0.8-3.5,1.3-5.2
						s1-3.4,1.7-5.1c0.7-1.7,1.5-3.4,2.6-5c0.6-0.8,1.2-1.6,2.1-2.4c0.4-0.4,0.9-0.8,1.5-1.1c0.3-0.2,0.6-0.3,1-0.5
						c0.2-0.1,0.4-0.1,0.6-0.2c0.1,0,0.2-0.1,0.4-0.1h0.2h0.1h0.1h0.3c1.7,0.2,2.9,1.7,2.7,3.3S505.2,582.1,503.5,582z"/>
				</g>
				<g>
					<path class="st8" d="M527.5,373.6c0,0-3.4,8.1-16,6.6c-12.6-1.5-12.3-21,1.1-21"/>
					<path class="st9" d="M530.2,374.8c-0.3,0.5-0.4,0.7-0.6,1.1c-0.2,0.3-0.4,0.6-0.6,0.8c-0.4,0.5-0.9,1-1.3,1.4
						c-0.9,0.9-2,1.6-3.1,2.2c-2.2,1.2-4.6,1.8-7,2s-4.6,0-6.9-0.4c-2.4-0.5-4.7-1.7-6.3-3.5c-3.3-3.6-4-8.8-2.3-13
						c0.8-2.1,2.3-3.9,4.2-5c1.9-1.1,4.1-1.5,6.2-1.4c-2.1,0.1-4.2,0.8-5.7,2c-1.6,1.2-2.7,3-3.2,4.9s-0.5,3.9,0,5.7
						c0.5,1.8,1.5,3.5,2.9,4.6s3.1,1.8,4.8,1.9c1.9,0.1,3.9,0.1,5.7-0.3s3.5-1.1,4.8-2c0.7-0.5,1.3-1.1,1.8-1.7
						c0.2-0.3,0.5-0.6,0.7-1c0.1-0.2,0.2-0.3,0.3-0.5c0.1-0.1,0.2-0.4,0.1-0.3c0.7-1.5,2.4-2.2,4-1.6
						C530.2,371.5,530.9,373.3,530.2,374.8z"/>
				</g>
				<g>
					<path class="st8" d="M421.2,641.1c-9.6,0-15.6-6-16.2-16.6c-0.2-2.2-1-21,25-29.3c4.1-1.3,8.1-1.9,11.9-1.9
						c9.7,0,18.3,4.3,23.7,11.8c3.8,5.4,5.3,11.5,3.8,15.9c-2.4,7-9.2,9.9-15.3,10.3c-1.8,3.3-6.5,9.4-16.2,9.4
						c-2.4,0-4.9-0.4-7.6-1.2C428.6,640.2,425.1,641.1,421.2,641.1z"/>
					<g>
						<path class="st9" d="M441.9,596.3c18.2,0,27.1,16.2,24.6,23.7c-2.7,7.9-12.1,8.4-14,8.4c-0.2,0-0.3,0-0.3,0s-3.3,9.4-14.2,9.4
							c-2.2,0-4.8-0.4-7.7-1.3c0,0-4.2,1.7-9,1.7c-5.8,0-12.5-2.5-13.2-13.8c0,0-2.5-18.1,22.9-26.2
							C434.9,596.9,438.6,596.3,441.9,596.3 M441.9,590.3c-4.1,0-8.4,0.7-12.8,2.1c-8.4,2.7-19.5,8.2-24.7,19.4
							c-2.9,6.3-2.6,11.7-2.5,13.1c0.8,12.1,8,19.3,19.2,19.3c3.7,0,7-0.8,9.1-1.4c2.6,0.7,5.2,1,7.6,1c9.3,0,15.1-5,18.1-9.6
							c1.6-0.2,3.4-0.6,5.4-1.3c5.4-2,9.2-5.8,10.9-10.9c1.8-5.4,0.2-12.5-4.2-18.6C462.1,595,452.6,590.3,441.9,590.3L441.9,590.3z
							"/>
					</g>
				</g>
				<g>
					<path class="st9" d="M430.3,642.6c-0.2-0.1-0.4-0.2-0.5-0.3s-0.3-0.2-0.4-0.2c-0.2-0.2-0.5-0.3-0.7-0.5
						c-0.5-0.3-0.9-0.7-1.3-1.1c-0.8-0.8-1.6-1.5-2.2-2.4c-1.3-1.7-2.3-3.6-2.9-5.6s-0.9-4-0.9-5.9c0-0.5,0-1,0.1-1.5l0.1-1.4
						c0.1-0.9,0.4-1.9,0.5-2.8c0.1,0.9,0.1,1.9,0.2,2.8l0.2,1.4c0.1,0.5,0.2,0.9,0.3,1.3c0.4,1.8,1.2,3.4,2.1,4.9
						c0.9,1.4,2.1,2.7,3.4,3.6c0.6,0.5,1.3,0.9,2,1.3c0.4,0.2,0.7,0.3,1.1,0.5c0.2,0.1,0.3,0.1,0.5,0.2c0.1,0,0.2,0.1,0.2,0.1
						c0.1,0,0.2,0,0.2,0c1.6,0.6,2.3,2.3,1.7,3.9S431.9,643.2,430.3,642.6z"/>
				</g>
				<g>
					<path class="st9" d="M451.2,630.4c0.1-0.2,0.3-0.6,0.4-0.9c0.1-0.4,0.2-0.8,0.3-1.1c0.1-0.4,0.2-0.8,0.2-1.2l0.1-1.2
						c0.1-1.6,0-3.3-0.4-5c-0.4-1.6-1.1-3.3-2.1-4.7c-0.5-0.8-1.1-1.4-1.7-2.1c-0.6-0.7-1.3-1.3-2-1.9c0.8,0.4,1.7,0.8,2.5,1.3
						s1.6,1,2.3,1.7c1.5,1.2,2.8,2.8,3.8,4.6s1.8,3.7,2.1,5.8c0.1,0.5,0.2,1,0.2,1.6c0,0.5,0.1,1.1,0.1,1.6s0,1.1,0,1.6
						c0,0.6,0,1-0.2,1.8l-0.1,0.5c-0.3,1.7-1.9,2.8-3.6,2.5s-2.8-1.9-2.5-3.6C450.9,631.2,451,630.8,451.2,630.4z"/>
				</g>
				<g>
					<path class="st8" d="M589,641.1c-3.9,0-7.4-1-9-1.5c-2.7,0.8-5.2,1.2-7.6,1.2c-9.7,0-14.4-6.2-16.2-9.4
						c-6.1-0.4-12.9-3.3-15.3-10.3c-1.5-4.4-0.1-10.5,3.8-15.9c5.4-7.5,14-11.8,23.7-11.8c3.8,0,7.8,0.7,11.9,1.9
						c14.2,4.5,20.3,12.1,22.8,17.7c2.7,5.8,2.3,10.7,2.2,11.6C604.5,635.1,598.6,641.1,589,641.1L589,641.1z"/>
					<g>
						<path class="st9" d="M568.3,596.3c3.3,0,7,0.5,11,1.8c25.5,8.1,22.9,26.2,22.9,26.2c-0.7,11.2-7.4,13.8-13.2,13.8
							c-4.8,0-9-1.7-9-1.7c-2.9,0.9-5.4,1.3-7.7,1.3c-10.9,0-14.2-9.4-14.2-9.4s-0.1,0-0.3,0c-1.9,0-11.3-0.4-14-8.4
							C541.2,612.5,550.1,596.3,568.3,596.3 M568.3,590.3v6V590.3c-10.7,0-20.2,4.8-26.1,13.1c-4.4,6.1-6,13.3-4.2,18.6
							c1.7,5.1,5.5,8.8,10.9,10.9c1.9,0.7,3.8,1.1,5.4,1.3c3,4.6,8.8,9.6,18.1,9.6c2.4,0,4.9-0.3,7.6-1c2.1,0.6,5.4,1.4,9.1,1.4
							c11.2,0,18.4-7.2,19.2-19.3c0.1-1.4,0.5-6.8-2.5-13.1c-5.1-11.2-16.3-16.7-24.7-19.4C576.7,591,572.4,590.3,568.3,590.3
							L568.3,590.3z"/>
					</g>
				</g>
				<g>
					<path class="st9" d="M577.7,637c0,0,0.1,0,0.2,0c0.1,0,0.2,0,0.2-0.1c0.2-0.1,0.3-0.1,0.5-0.2c0.4-0.1,0.7-0.3,1.1-0.5
						c0.7-0.4,1.4-0.8,2-1.3c1.3-1,2.5-2.2,3.4-3.6c0.9-1.5,1.7-3.1,2.1-4.9c0.1-0.4,0.2-0.9,0.3-1.3l0.2-1.4
						c0.1-0.9,0.2-1.9,0.2-2.8c0.2,0.9,0.4,1.9,0.5,2.8l0.1,1.4c0,0.5,0.1,1,0.1,1.5c0,2-0.3,4-0.9,5.9c-0.6,2-1.6,3.9-2.9,5.6
						c-0.6,0.9-1.4,1.6-2.2,2.4c-0.4,0.4-0.8,0.7-1.3,1.1c-0.2,0.2-0.5,0.3-0.7,0.5c-0.1,0.1-0.2,0.2-0.4,0.2
						c-0.1,0.1-0.3,0.2-0.5,0.3c-1.6,0.6-3.3-0.2-3.9-1.7C575.4,639.3,576.1,637.6,577.7,637z"/>
				</g>
				<g>
					<path class="st9" d="M553.1,632.1c-0.1-0.7-0.2-1.2-0.2-1.8c0-0.5,0-1.1,0-1.6s0.1-1.1,0.1-1.6c0.1-0.5,0.2-1,0.2-1.6
						c0.4-2.1,1.1-4,2.1-5.8s2.3-3.3,3.8-4.6c0.7-0.7,1.6-1.2,2.3-1.7c0.8-0.5,1.7-0.9,2.5-1.3c-0.7,0.6-1.4,1.2-2,1.9
						s-1.2,1.3-1.7,2.1c-1,1.4-1.7,3.1-2.1,4.7c-0.4,1.6-0.6,3.3-0.4,5l0.1,1.2c0.1,0.4,0.1,0.8,0.2,1.2c0.1,0.4,0.2,0.8,0.3,1.1
						s0.3,0.8,0.4,0.9c0.9,1.5,0.5,3.4-0.9,4.3c-1.5,0.9-3.4,0.5-4.3-0.9c-0.2-0.4-0.4-0.7-0.4-1.1L553.1,632.1z"/>
				</g>
			</g>
		</g>
		<g>
			<path class="st15" d="M546.1,350.8c-10.4-10.4-10.4-27.3,0-37.7c5-5,11.7-7.8,18.8-7.8c6.9,0,13.4,2.6,18.3,7.2
				c5-4.7,11.4-7.2,18.3-7.2c7.1,0,13.8,2.8,18.8,7.8s7.8,11.7,7.8,18.8s-2.8,13.8-7.8,18.8l-37,37.3L546.1,350.8z"/>
			<path class="st9" d="M601.6,308.4c6.1,0,12.1,2.3,16.7,6.9l0,0c9.2,9.2,9.2,24.2,0,33.4l-1.6,1.6l-33.4,33.4l-33.4-33.4l-1.6-1.6
				c-9.2-9.2-9.2-24.2,0-33.4l0,0c4.6-4.6,10.7-6.9,16.7-6.9c6.1,0,12.1,2.3,16.7,6.9l1.6,1.6l1.6-1.6
				C589.5,310.7,595.5,308.4,601.6,308.4 M601.6,302.3c-6.7,0-13.1,2.2-18.3,6.3c-5.2-4.1-11.6-6.3-18.3-6.3c-7.9,0-15.4,3.1-21,8.7
				s-8.7,13-8.7,21c0,7.9,3.1,15.4,8.7,21l1.6,1.6L579,388l4.3,4.3l4.3-4.3l33.4-33.4l1.6-1.6c5.6-5.6,8.7-13,8.7-21
				c0-7.9-3.1-15.4-8.7-21C617,305.4,609.5,302.3,601.6,302.3L601.6,302.3z"/>
		</g>
	</g>
	<g>
		<path class="st16" d="M574.4,694.6c-3.8,0-7.4-1.5-10.2-4.2l-6.3-6.3H457.1l-6.3,6.3c-2.7,2.7-6.3,4.2-10.1,4.2
			c-3.8,0-7.4-1.5-10.2-4.2s-4.2-6.3-4.2-10.2c0-3.2,1.1-6.3,3-8.8c-4.4-5.6-4-13.8,1.2-19c2.7-2.7,6.3-4.2,10.2-4.2
			c3.8,0,7.4,1.5,10.1,4.2l6.3,6.3H558l6.3-6.3c2.7-2.7,6.3-4.2,10.2-4.2s7.4,1.5,10.2,4.2c2.7,2.7,4.2,6.3,4.2,10.1
			c0,3.2-1.1,6.3-3,8.8c1.9,2.5,3,5.6,3,8.8c0,3.8-1.5,7.4-4.2,10.2C581.8,693.1,578.2,694.6,574.4,694.6z"/>
		<path class="st9" d="M440.7,651.3c2.9,0,5.8,1.1,8,3.3l0.8,0.8l6.4,6.4h103.4l6.4-6.4l0.8-0.8c2.2-2.2,5.1-3.3,8-3.3
			s5.8,1.1,8,3.3c4.4,4.4,4.4,11.7,0,16.1l-0.8,0.8l0.8,0.8c4.4,4.4,4.4,11.7,0,16.1l0,0c-2.2,2.2-5.1,3.3-8,3.3s-5.8-1.1-8-3.3
			l-0.8-0.8l-6.4-6.4H455.8l-6.4,6.4l-0.8,0.8c-2.2,2.2-5.1,3.3-8,3.3s-5.8-1.1-8-3.3l0,0c-4.4-4.4-4.4-11.7,0-16.1l0.8-0.8
			l-0.8-0.8c-4.4-4.4-4.4-11.7,0-16.1l0,0C434.8,652.4,437.7,651.3,440.7,651.3 M574.4,645.3c-4.6,0-9,1.8-12.3,5.1l-0.8,0.8
			l-4.6,4.6h-98.4l-4.6-4.6l-0.8-0.8c-3.3-3.3-7.6-5.1-12.3-5.1c-4.6,0-9,1.8-12.3,5.1c-5.7,5.7-6.6,14.4-2.7,21.1
			c-1.6,2.6-2.4,5.7-2.4,8.8c0,4.6,1.8,9,5.1,12.3c3.3,3.3,7.6,5.1,12.3,5.1s9-1.8,12.3-5.1l0.8-0.8l4.6-4.6h98.4l4.6,4.6l0.8,0.8
			c3.3,3.3,7.6,5.1,12.3,5.1c4.6,0,9-1.8,12.3-5.1s5.1-7.6,5.1-12.3c0-3.2-0.8-6.2-2.4-8.8c1.6-2.6,2.4-5.7,2.4-8.8
			c0-4.6-1.8-9-5.1-12.3S579,645.3,574.4,645.3L574.4,645.3z"/>
	</g>
</g>
<g>
	<g>
		<path class="st17" d="M351.8,75.7c49.7,36.9,56.1,114.8,4.3,152.2c-50.6,36.5-99.3,38.2-134.2,21.8c-44.9-21-78.6-100-17.5-156.3
			C242.9,58,306.3,42,351.8,75.7z"/>
		<path class="st18" d="M354.6,93.4c-13.5-22.7-46.9-27.8-70.5-23.6c-17.4,3-40.2,12.3-58.6,26c-54.3,40.5-46.5,97.1,10.9,96
			c10.5-0.2,21.2-2.4,31.4-5c25.5-6.5,52-16.5,72.7-33.1C358.9,139,367,114.4,354.6,93.4z"/>
		<g>
			<path class="st19" d="M372.4,96.5c5.4,8.3,10.1,17,13.1,27.5c5.3,18.6,2.7,38.4-5.2,55.8c-14.5,31.8-49,47.8-80.5,57.9
				c-32.7,10.5-71.7,12.5-98.2-12.8c-25.3-24.2-26.3-61.8-23.3-94.9c-20.7,49.5,7.9,103.1,43.6,119.8c35,16.4,83.6,14.7,134.2-21.8
				C399.6,196.6,402,136.7,372.4,96.5z"/>
		</g>
	</g>
	<path class="st19" d="M240.3,120.2c8.3-2.3,15.6-2.3,22.7-0.1c1.7,0.5,3.3,1.2,4.9,1.9c0.7,0.3,1,0.3,1.4-0.4
		c3.6-5.6,8.5-9.8,14.4-12.8c5.6-2.9,11.7-4.4,18-4.3c9.7,0.1,18.1,3.6,25.2,10.2c6.9,6.5,10.9,14.6,11.8,24.1
		c1,10.6-1.7,20.3-6.2,29.7c-6.6,13.7-15.2,26.1-24.7,38c-3.5,4.4-7.2,8.6-10.8,12.9c-0.6,0.7-1.1,0.8-1.9,0.5
		c-11.6-3.5-23-7.8-34.1-12.8c-9.7-4.4-19-9.4-27.5-15.8c-4.6-3.4-8.7-7.3-12-12c-6.2-9-9.1-18.8-7.2-29.7
		c1.9-10.4,7.2-18.7,16-24.7C233.8,122.7,237.5,121.1,240.3,120.2z M272.6,135.9c-0.3-0.2-0.5-0.3-0.7-0.5
		c-3.7-2.6-7.4-5.2-11.8-6.5c-5.4-1.6-10.9-1.7-16.3-0.1c-4.1,1.2-7.7,3.2-10.9,6c-4.5,3.9-7.5,8.8-8.9,14.6c-1.5,6-1.1,12,1.3,17.7
		c1.9,4.4,4.4,8.3,7.8,11.7c5.5,5.5,11.9,9.6,18.6,13.4c12.9,7.2,26.6,12.7,40.6,17.3c0.7,0.2,1.1,0.1,1.6-0.5
		c9.2-10.8,17.6-22.1,24.8-34.3c3.8-6.5,7.2-13.2,9.4-20.5c1.7-5.8,2-11.6,0.9-17.5c-1-5.5-3.7-10.3-7.6-14.4
		c-8-8.1-20.2-10.7-30.7-6.4c-7,2.9-12.2,7.6-15.5,14.4C274.3,132.1,273.5,133.9,272.6,135.9z"/>
	<g id="_x35_T3vMl_00000145765537904937314660000000723318330243469463_">
		<g>
			<path class="st20" d="M238.6,111.8c8.3-2.3,15.6-2.3,22.7-0.1c1.7,0.5,3.3,1.2,4.9,1.9c0.7,0.3,1,0.3,1.4-0.4
				c3.6-5.6,8.5-9.8,14.4-12.8c5.6-2.9,11.7-4.4,18-4.3c9.7,0.1,18.1,3.6,25.2,10.2c6.9,6.5,10.9,14.6,11.8,24.1
				c1,10.6-1.7,20.3-6.2,29.7c-6.6,13.7-15.2,26.1-24.7,38c-3.5,4.4-7.2,8.6-10.8,12.9c-0.6,0.7-1.1,0.8-1.9,0.5
				c-11.6-3.5-23-7.8-34.1-12.8c-9.7-4.4-19-9.4-27.5-15.8c-4.6-3.4-8.7-7.3-12-12c-6.2-9-9.1-18.8-7.2-29.7
				c1.9-10.4,7.2-18.7,16-24.7C232.1,114.2,235.7,112.6,238.6,111.8z M270.9,127.4c-0.3-0.2-0.5-0.3-0.7-0.5
				c-3.7-2.6-7.4-5.2-11.8-6.5c-5.4-1.6-10.9-1.7-16.3-0.1c-4.1,1.2-7.7,3.2-10.9,6c-4.5,3.9-7.5,8.8-8.9,14.6
				c-1.5,6-1.1,12,1.3,17.7c1.9,4.4,4.4,8.3,7.8,11.7c5.5,5.5,11.9,9.6,18.6,13.4c12.9,7.2,26.6,12.7,40.6,17.3
				c0.7,0.2,1.1,0.1,1.6-0.5c9.2-10.8,17.6-22.1,24.8-34.3c3.8-6.5,7.2-13.2,9.4-20.5c1.7-5.8,2-11.6,0.9-17.5
				c-1-5.5-3.7-10.3-7.6-14.4c-8-8.1-20.2-10.7-30.7-6.4c-7,2.9-12.2,7.6-15.5,14.4C272.6,123.7,271.8,125.5,270.9,127.4z"/>
			<path class="st12" d="M270.9,127.4c0.9-1.9,1.6-3.7,2.5-5.5c3.3-6.8,8.5-11.6,15.5-14.4c10.5-4.3,22.7-1.8,30.7,6.4
				c4,4.1,6.6,8.8,7.6,14.4c1.1,5.9,0.8,11.7-0.9,17.5c-2.2,7.3-5.5,14-9.4,20.5c-7.2,12.2-15.7,23.5-24.8,34.3
				c-0.5,0.6-0.9,0.7-1.6,0.5c-14-4.7-27.7-10.1-40.6-17.3c-6.7-3.7-13.2-7.9-18.6-13.4c-3.4-3.4-5.9-7.3-7.8-11.7
				c-2.4-5.8-2.8-11.7-1.3-17.7c1.4-5.8,4.4-10.7,8.9-14.6c3.2-2.8,6.9-4.8,10.9-6c5.4-1.5,10.9-1.5,16.3,0.1
				c4.4,1.3,8.1,3.9,11.8,6.5C270.4,127.1,270.6,127.2,270.9,127.4z M294.1,110.8c-0.3,0.1-0.6,0.1-0.9,0.2
				c-1.4,0.4-2.1,1.4-1.9,2.7c0.2,1.3,1.3,1.9,2.7,1.8c2.2-0.2,4.5-0.7,6.7-0.5c6.7,0.5,11.8,3.8,15.3,9.6c1.9,3.1,2.5,6.6,2.5,10.2
				c0,1.4,1,2.4,2.3,2.4c1.2,0,2.1-1,2.2-2.3c0.2-3.6-0.5-7.1-2-10.4c-2-4.4-5.1-8-9.2-10.5C306.3,110.4,300.4,109.5,294.1,110.8z"
				/>
			<path class="st21" d="M294.1,110.8c6.3-1.3,12.2-0.4,17.7,3c4.2,2.6,7.2,6.1,9.2,10.5c1.5,3.3,2.2,6.8,2,10.4
				c-0.1,1.3-1,2.3-2.2,2.3c-1.3,0-2.3-0.9-2.3-2.4c-0.1-3.6-0.7-7-2.5-10.2c-3.5-5.8-8.5-9.1-15.3-9.6c-2.2-0.2-4.5,0.3-6.7,0.5
				c-1.4,0.1-2.5-0.5-2.7-1.8s0.5-2.3,1.9-2.7C293.5,111,293.8,110.9,294.1,110.8z"/>
		</g>
	</g>
</g>
<g>
	<g id="JLsdeU_00000029014381185654564020000012337623583312091566_">
		<g>
			<path class="st22" d="M626.6,794.8c-1.2,2.5-2.3,5.1-3.6,7.5c-1.7,3.2-4.9,4.2-7.6,2.6c-2.6-1.5-3.3-4.6-1.7-7.6
				c3.5-6.3,7-12.5,10.5-18.8c1.7-3,4.7-3.9,7.7-2.2c6.3,3.5,12.5,7,18.7,10.6c3.2,1.8,4.1,4.9,2.5,7.6c-1.5,2.6-4.6,3.3-7.7,1.6
				c-2.4-1.4-4.8-2.9-7.1-4.4c-0.2,0.2-0.3,0.4-0.5,0.6c5.7,20.3,11.4,40.6,17.3,61.5c1.5-2.6,2.7-5,4.1-7.2
				c0.7-1.2,1.6-2.4,2.8-3.1c2.2-1.3,4.4-0.9,6.2,1c1.7,1.8,2,4.1,0.8,6.3c-2.9,5.3-6.1,10.4-8.8,15.8c-3.6,7-5.8,8.2-13.2,3.6
				c-4.9-3.1-10-5.7-15-8.5c-3.2-1.8-4.3-4.8-2.8-7.5c1.5-2.8,4.7-3.5,8.1-1.6c2.3,1.3,4.5,2.9,6.8,4.4c0.2-0.3,0.4-0.6,0.6-0.9
				c-5.7-20.3-11.4-40.6-17.1-60.8C627.3,795.1,626.9,795,626.6,794.8z"/>
			<path class="st22" d="M690.6,774.5c-8.8,2.5-17.6,5-26.4,7.4c-1.3,0.3-2.6,0.7-3.9,0.6c-2.5-0.4-4-2-4.4-4.5
				c-0.3-2.4,0.8-4.2,2.9-5.3c0.7-0.4,1.6-0.5,2.4-0.8c17.8-5,35.6-10,53.3-15c1-0.3,2-0.6,3-0.6c2.5,0.1,4.5,1.9,4.9,4.3
				c0.4,2.7-0.6,4.7-3.1,5.6c-3.2,1.1-6.5,2-9.8,2.9C703.3,770.9,697,772.7,690.6,774.5z"/>
			<path class="st22" d="M702.5,815.5c9-2.5,18-4.9,26.9-7.6c4.1-1.2,6.7,0.8,7.4,3.4c0.8,3.1-0.9,5.6-4.5,6.6
				c-18.2,5.1-36.5,10.2-54.7,15.3c-3.5,1-6.3-0.4-7.1-3.5c-0.8-3,0.8-5.5,4.2-6.5C684,820.6,693.2,818.1,702.5,815.5z"/>
			<path class="st22" d="M701.9,854c-5.6,1.6-11.2,3.2-16.9,4.7c-3.7,1-6.4-0.2-7.3-3.2c-1-3.2,0.6-5.8,4.5-6.8
				c11.3-3.2,22.7-6.4,34-9.5c3.8-1.1,6.6,0.3,7.4,3.5c0.8,3.1-0.9,5.5-4.6,6.6C713.3,850.8,707.6,852.4,701.9,854z"/>
			<path class="st22" d="M687.6,802.8c-5.7,1.6-11.4,3.2-17.1,4.8c-3.6,1-6.3-0.4-7.1-3.5c-0.8-3,0.8-5.5,4.2-6.5
				c11.5-3.3,23-6.5,34.5-9.7c3.5-1,6.3,0.4,7.2,3.5c0.8,3-0.8,5.5-4.2,6.5C699.2,799.6,693.4,801.2,687.6,802.8z"/>
		</g>
	</g>
	<g id="JLsdeU_00000137821102986948102130000008893905488058470787_">
		<g>
			<path class="st12" d="M627.1,789c-1.2,2.5-2.3,5.1-3.6,7.5c-1.7,3.2-4.9,4.2-7.6,2.6c-2.6-1.5-3.3-4.6-1.7-7.6
				c3.5-6.3,7-12.5,10.5-18.8c1.7-3,4.7-3.9,7.7-2.2c6.3,3.5,12.5,7,18.7,10.6c3.2,1.8,4.1,4.9,2.5,7.6c-1.5,2.6-4.6,3.3-7.7,1.6
				c-2.4-1.4-4.8-2.9-7.1-4.4c-0.2,0.2-0.3,0.4-0.5,0.6c5.7,20.3,11.4,40.6,17.3,61.5c1.5-2.6,2.7-5,4.1-7.2
				c0.7-1.2,1.6-2.4,2.8-3.1c2.2-1.3,4.4-0.9,6.2,1c1.7,1.8,2,4.1,0.8,6.3c-2.9,5.3-6.1,10.4-8.8,15.8c-3.6,7-5.8,8.2-13.2,3.6
				c-4.9-3.1-10-5.7-15-8.5c-3.2-1.8-4.3-4.8-2.8-7.5c1.5-2.8,4.7-3.5,8.1-1.6c2.3,1.3,4.5,2.9,6.8,4.4c0.2-0.3,0.4-0.6,0.6-0.9
				c-5.7-20.3-11.4-40.6-17.1-60.8C627.8,789.3,627.4,789.2,627.1,789z"/>
			<path class="st12" d="M691.1,768.7c-8.8,2.5-17.6,5-26.4,7.4c-1.3,0.3-2.6,0.7-3.9,0.6c-2.5-0.4-4-2-4.4-4.5
				c-0.3-2.4,0.8-4.2,2.9-5.3c0.7-0.4,1.6-0.5,2.4-0.8c17.8-5,35.6-10,53.3-15c1-0.3,2-0.6,3-0.6c2.5,0.1,4.5,1.9,4.9,4.3
				c0.4,2.7-0.6,4.7-3.1,5.6c-3.2,1.1-6.5,2-9.8,2.9C703.8,765.1,697.5,766.9,691.1,768.7z"/>
			<path class="st12" d="M703,809.6c9-2.5,18-4.9,26.9-7.6c4.1-1.2,6.7,0.8,7.4,3.4c0.8,3.1-0.9,5.6-4.5,6.6
				c-18.2,5.1-36.5,10.2-54.7,15.3c-3.5,1-6.3-0.4-7.1-3.5c-0.8-3,0.8-5.5,4.2-6.5C684.5,814.8,693.7,812.2,703,809.6z"/>
			<path class="st12" d="M702.4,848.2c-5.6,1.6-11.2,3.2-16.9,4.7c-3.7,1-6.4-0.2-7.3-3.2c-1-3.2,0.6-5.8,4.5-6.8
				c11.3-3.2,22.7-6.4,34-9.5c3.8-1.1,6.6,0.3,7.4,3.5c0.8,3.1-0.9,5.5-4.6,6.6C713.8,845,708.1,846.6,702.4,848.2z"/>
			<path class="st12" d="M688.1,797c-5.7,1.6-11.4,3.2-17.1,4.8c-3.6,1-6.3-0.4-7.1-3.5c-0.8-3,0.8-5.5,4.2-6.5
				c11.5-3.3,23-6.5,34.5-9.7c3.5-1,6.3,0.4,7.2,3.5c0.8,3-0.8,5.5-4.2,6.5C699.7,793.8,693.9,795.4,688.1,797z"/>
		</g>
	</g>
</g>
<g>
	<g>
		<path class="st23" d="M900.4,233.4c50.3,37.3,56.8,116.1,4.4,153.9c-51.2,37-100.5,38.7-135.8,22.1
			c-45.4-21.3-79.5-101.2-17.7-158.1C790.3,215.5,854.4,199.3,900.4,233.4z"/>
		<path class="st24" d="M903.2,251.3c-13.7-22.9-47.4-28.1-71.3-23.9c-17.6,3.1-40.7,12.5-59.2,26.3c-54.9,41-47.1,98.2,11,97.1
			c10.6-0.2,21.5-2.4,31.7-5c25.8-6.6,52.6-16.7,73.5-33.5C907.6,297.4,915.8,272.5,903.2,251.3z"/>
		<g>
			<path class="st25" d="M921.2,254.4c5.5,8.4,10.2,17.2,13.2,27.8c5.3,18.8,2.7,38.8-5.3,56.4c-14.7,32.2-49.6,48.4-81.4,58.6
				c-33.1,10.6-72.5,12.7-99.3-13c-25.6-24.5-26.6-62.5-23.5-95.9c-20.9,50.1,8,104.2,44.1,121.2c35.4,16.6,84.6,14.8,135.7-22.1
				C948.7,355.6,951.2,295.1,921.2,254.4z"/>
		</g>
	</g>
	<g id="ijh0Z7_00000072238792314428004830000011560439531511810181_">
		<g>
			<path class="st26" d="M848.9,369.5c-12.6,4.2-25.2,8.4-37.8,12.6c-10.7,3.6-22.6-1.5-27.5-11.7c-0.5-1.1-1-2.3-1.4-3.5
				c-7.6-22.9-15.3-45.7-22.8-68.6c-2.9-8.8-1.2-16.7,5-23.5c2.6-2.9,5.9-4.7,9.5-6c24.9-8.3,49.8-16.6,74.7-24.8
				c10.7-3.5,21.7,0.7,27.3,10.4c0.6,1,1.1,2.2,1.5,3.3c7.9,23.8,15.8,47.5,23.7,71.3c3.1,9.4-1.1,20.5-9.7,25.7
				c-1.6,0.9-3.3,1.7-5,2.3C873.9,361.2,861.4,365.3,848.9,369.5z M812.6,260.3c-12.4,4.1-24.8,8.3-37.2,12.4
				c-3.8,1.3-7.1,3.4-9.5,6.6c-4,5.5-4.8,11.5-2.6,17.9c7.6,22.8,15.2,45.7,22.8,68.5c0.4,1.1,0.8,2.2,1.3,3.2
				c4.4,8.5,13.8,12.3,22.9,9.3c24.8-8.2,49.6-16.5,74.4-24.8c1-0.3,2-0.7,2.9-1.2c8.2-3.8,12.5-13.7,9.7-22.3
				c-7.8-23.6-15.7-47.1-23.5-70.7c-1.7-5-5-8.5-9.8-10.7c-4.6-2.1-9.2-2.2-14-0.7C837.5,252,825,256.1,812.6,260.3z"/>
			<path class="st27" d="M849.7,365.4c-12.6,4.2-25.2,8.4-37.8,12.6c-10.7,3.6-22.6-1.5-27.5-11.7c-0.5-1.1-1-2.3-1.4-3.5
				c-7.6-22.9-15.3-45.7-22.8-68.6c-2.9-8.8-1.2-16.7,5-23.5c2.6-2.9,5.9-4.7,9.5-6c24.9-8.3,49.8-16.6,74.7-24.8
				c10.7-3.5,21.7,0.7,27.3,10.4c0.6,1,1.1,2.2,1.5,3.3c7.9,23.8,15.8,47.5,23.7,71.3c3.1,9.4-1.1,20.5-9.7,25.7
				c-1.6,0.9-3.3,1.7-5,2.3C874.7,357.1,862.2,361.2,849.7,365.4z M813.4,256.2c-12.4,4.1-24.8,8.3-37.2,12.4
				c-3.8,1.3-7.1,3.4-9.5,6.6c-4,5.5-4.8,11.5-2.6,17.9c7.6,22.8,15.2,45.7,22.8,68.5c0.4,1.1,0.8,2.2,1.3,3.2
				c4.4,8.5,13.8,12.3,22.9,9.3c24.8-8.2,49.6-16.5,74.4-24.8c1-0.3,2-0.7,2.9-1.2c8.2-3.8,12.5-13.7,9.7-22.3
				c-7.8-23.6-15.7-47.1-23.5-70.7c-1.7-5-5-8.5-9.8-10.7c-4.6-2.1-9.2-2.2-14-0.7C838.3,247.9,825.8,252.1,813.4,256.2z"/>
			<path class="st12" d="M813.4,256.2c12.5-4.1,24.9-8.3,37.3-12.4c4.8-1.6,9.5-1.5,14,0.7c4.7,2.2,8.1,5.7,9.8,10.7
				c7.9,23.6,15.7,47.1,23.5,70.7c2.8,8.5-1.5,18.5-9.7,22.3c-0.9,0.4-1.9,0.8-2.9,1.2c-24.8,8.3-49.6,16.5-74.4,24.8
				c-9.1,3-18.5-0.8-22.9-9.3c-0.5-1-0.9-2.1-1.3-3.2c-7.6-22.8-15.2-45.7-22.8-68.5c-2.1-6.4-1.4-12.4,2.6-17.9
				c2.4-3.3,5.6-5.4,9.5-6.6C788.6,264.5,801,260.3,813.4,256.2z M826.4,295.5c8.7-2.9,17.4-5.8,26.2-8.7c1.5-0.5,2.1-1.5,1.5-3
				c-0.3-0.8-0.6-1.5-0.9-2.2c-3.4-8-9-14-17-17.7c-11.4-5.3-25-2.5-33,7.2c-7.8,9.3-9.2,20-5.9,31.4c0.6,1.9,1.4,2.3,3.3,1.7
				C809.2,301.2,817.8,298.3,826.4,295.5z"/>
			<path d="M826.4,295.5c-8.6,2.9-17.2,5.7-25.8,8.6c-1.9,0.6-2.8,0.2-3.3-1.7c-3.3-11.5-1.8-22.1,5.9-31.4c8-9.6,21.6-12.5,33-7.2
				c8,3.7,13.5,9.7,17,17.7c0.3,0.7,0.6,1.5,0.9,2.2c0.5,1.5,0,2.5-1.5,3C843.8,289.7,835.1,292.6,826.4,295.5z M849.5,283.5
				c0-0.2-0.1-0.4-0.1-0.5c-0.1-0.2-0.1-0.4-0.2-0.6c-3.1-6.8-7.9-11.9-14.8-15c-10.2-4.6-22-1.8-28.8,7c-5.5,7.1-6.9,15.2-5.2,23.9
				c0.1,0.4,0.3,0.9,0.4,1.3c0.3-0.1,0.4-0.1,0.6-0.1c5.5-1.8,11-3.7,16.5-5.5c0.6-0.2,0.7-0.5,0.6-1c-0.1-1.5,0.2-2.9,1-4.1
				c0.5-0.7,0.4-1.2-0.1-1.9c-2.6-3.6-5.1-7.2-7.6-10.9c-0.2-0.2-0.3-0.5-0.5-0.8c0.4,0.1,0.6,0.3,0.9,0.6c3.2,3.2,6.3,6.3,9.4,9.5
				c0.5,0.6,1,0.7,1.8,0.4c2.9-0.9,5.9,0.2,7.6,2.7c0.2,0.3,0.4,0.5,0.6,0.8C837.6,287.4,843.5,285.5,849.5,283.5z"/>
			<path class="st12" d="M849.5,283.5c-6,2-11.8,3.9-17.8,5.9c-0.2-0.3-0.4-0.5-0.6-0.8c-1.8-2.5-4.7-3.6-7.6-2.7
				c-0.8,0.2-1.2,0.1-1.8-0.4c-3.1-3.2-6.3-6.3-9.4-9.5c-0.2-0.2-0.5-0.5-0.9-0.6c0.2,0.3,0.3,0.5,0.5,0.8c2.5,3.6,5.1,7.3,7.6,10.9
				c0.5,0.6,0.6,1.1,0.1,1.9c-0.9,1.2-1.2,2.6-1,4.1c0.1,0.6-0.1,0.8-0.6,1c-5.5,1.8-11,3.7-16.5,5.5c-0.2,0.1-0.3,0.1-0.6,0.1
				c-0.2-0.5-0.3-0.9-0.4-1.3c-1.7-8.7-0.3-16.8,5.2-23.9c6.8-8.8,18.6-11.6,28.8-7c6.8,3.1,11.7,8.2,14.8,15
				c0.1,0.2,0.2,0.4,0.2,0.6C849.4,283.1,849.4,283.2,849.5,283.5z M833,275.6c0.2-0.1,0.6-0.3,0.8-0.6c0.6-1.1,1.2-2.2,1.7-3.3
				c0.4-0.9-0.1-2-1.1-2.4c-0.9-0.4-2-0.2-2.5,0.7c-0.6,1.1-1.2,2.2-1.6,3.3c-0.3,0.7,0,1.5,0.5,2C831.3,275.7,832,275.9,833,275.6z
				 M820.3,270.7c-0.2-0.5-0.3-1-0.5-1.5c-0.4-1-1.3-1.5-2.3-1.3c-0.9,0.2-1.7,1.1-1.5,2.1c0.3,1.4,0.7,2.7,1.3,4
				c0.4,0.9,1.6,1.1,2.6,0.6c0.8-0.4,1.2-1.3,0.9-2.3C820.6,271.7,820.5,271.2,820.3,270.7z M841.7,281.4L841.7,281.4
				c-0.5,0.2-1.1,0.3-1.6,0.5c-0.9,0.3-1.3,1.2-1.2,2.1c0.2,1,1,1.9,1.9,1.7c1.4-0.3,2.8-0.8,4.2-1.4c0.9-0.4,1.1-1.6,0.6-2.5
				s-1.4-1.3-2.4-1C842.7,281.1,842.2,281.2,841.7,281.4z M805.9,293.3c-0.5,0.2-1.1,0.3-1.6,0.5c-0.9,0.4-1.4,1.3-1.2,2.3
				c0.2,0.9,1.1,1.7,1.9,1.5c1.4-0.3,2.8-0.8,4.1-1.4c0.9-0.4,1-1.6,0.6-2.5c-0.4-0.8-1.3-1.2-2.3-1
				C806.9,293,806.4,293.2,805.9,293.3z M810.8,280.8c-0.3-0.3-0.6-0.8-0.9-1c-1-0.6-2-1.1-3-1.5c-0.9-0.4-2,0-2.5,0.9
				s-0.2,2.1,0.7,2.6c1,0.6,2.1,1.1,3.1,1.6c0.8,0.3,1.5,0.1,2.1-0.5C810.9,282.3,811,281.6,810.8,280.8z"/>
			<path d="M833,275.6c-1,0.3-1.7,0.2-2.2-0.4c-0.6-0.6-0.8-1.3-0.5-2c0.5-1.1,1-2.3,1.6-3.3c0.5-0.8,1.6-1.1,2.5-0.7
				s1.4,1.5,1.1,2.4c-0.5,1.1-1.1,2.2-1.7,3.3C833.6,275.3,833.2,275.4,833,275.6z"/>
			<path d="M820.3,270.7c0.2,0.5,0.4,1,0.5,1.5c0.3,1-0.1,1.9-0.9,2.3c-1,0.5-2.1,0.3-2.6-0.6c-0.6-1.3-1-2.6-1.3-4
				c-0.2-1,0.6-1.9,1.5-2.1c1-0.2,1.9,0.3,2.3,1.3C820,269.7,820.1,270.2,820.3,270.7z"/>
			<path d="M841.7,281.4c0.5-0.2,1-0.4,1.5-0.5c1-0.3,1.9,0.1,2.4,1c0.4,0.8,0.2,2.1-0.6,2.5c-1.3,0.6-2.7,1.1-4.2,1.4
				c-0.9,0.2-1.7-0.7-1.9-1.7c-0.2-0.9,0.3-1.7,1.2-2.1C840.6,281.8,841.1,281.6,841.7,281.4L841.7,281.4z"/>
			<path d="M805.9,293.3c0.5-0.2,1-0.4,1.5-0.5c0.9-0.3,1.9,0.1,2.3,1c0.5,0.9,0.3,2.1-0.6,2.5c-1.3,0.6-2.7,1.1-4.1,1.4
				c-0.9,0.2-1.7-0.6-1.9-1.5c-0.2-1,0.3-1.9,1.2-2.3C804.8,293.7,805.3,293.5,805.9,293.3z"/>
			<path d="M810.8,280.8c0.2,0.8,0.1,1.5-0.5,2.1s-1.3,0.8-2.1,0.5c-1.1-0.5-2.1-1-3.1-1.6c-0.9-0.5-1.2-1.7-0.7-2.6
				s1.5-1.3,2.5-0.9c1,0.5,2.1,1,3,1.5C810.3,280,810.5,280.4,810.8,280.8z"/>
		</g>
	</g>
</g>
<g>
	<g>
		<path class="st28" d="M760,762.8c49.2,36.5,55.6,113.6,4.3,150.7c-50.1,36.1-98.3,37.8-132.9,21.6c-44.4-20.8-77.8-99-17.3-154.7
			C652.2,745.2,715,729.4,760,762.8z"/>
		<path class="st29" d="M762.7,780.3c-13.4-22.5-46.4-27.5-69.8-23.4c-17.2,3-39.8,12.2-58,25.7c-53.7,40.1-46.1,96.1,10.8,95
			c10.4-0.2,21-2.4,31.1-4.9c25.3-6.5,51.5-16.3,71.9-32.7C767,825.4,775.1,801.1,762.7,780.3z"/>
		<g>
			<path class="st30" d="M780.4,783.3c5.4,8.2,10,16.9,12.9,27.2c5.2,18.4,2.7,38-5.2,55.2c-14.4,31.5-48.5,47.4-79.7,57.3
				c-32.4,10.4-71,12.4-97.2-12.7c-25.1-24-26-61.1-23-93.9c-20.5,49,7.8,102,43.2,118.6c34.6,16.2,82.8,14.5,132.9-21.6
				C807.3,882.4,809.7,823.2,780.4,783.3z"/>
		</g>
	</g>
	<g id="GBz7eZ_00000083805281447570712670000000601595958486008999_">
		<g>
			<path class="st30" d="M712.7,859.2c-1.8,0.6-3.4,1.1-5.2,1.7c0.1,0.4,0.3,0.8,0.4,1.1c2.3,6.9,4.7,13.9,7,20.8
				c0.9,2.6,0.5,5.1-1.3,7.3c-0.8,1-1.9,1.8-3.2,2.2c-6.3,2.1-12.5,4.2-18.8,6.3c-0.3,0.1-0.7,0.2-1.1,0.4c0.1,0.4,0.2,0.7,0.3,1
				c1.1,3.3,2.2,6.5,3.3,9.8c0.5,1.6-0.3,3.2-1.8,3.6c-0.8,0.2-1.5,0-2.1-0.4c-1.6-0.9-3.2-1.8-4.9-2.8c-2.8-1.6-5.6-3.3-8.4-4.9
				c-0.1,0-0.2-0.1-0.2-0.1c-1.1-1-2.2-0.8-3.6-0.4c-8.5,2.9-17.1,5.8-25.7,8.6c-3.2,1.1-6.6,0-8.5-2.8c-0.4-0.6-0.8-1.3-1-2.1
				c-4.5-13.3-8.9-26.6-13.4-39.9c-1.1-3.3,0-6.7,2.7-8.6c0.5-0.3,1-0.6,1.6-0.9c-8-6.7-12.6-15.3-14.1-25.5
				c-1.4-10.2,0.9-19.7,6.7-28.3c3.1-4.7,7.1-8.5,11.9-11.5c4.8-3,10-4.9,15.6-5.8c5.6-0.9,11.1-0.6,16.7,1
				c-0.2-0.5-0.3-0.9-0.4-1.3c-1.1-3.2-0.3-5.9,2.1-8.2c0.8-0.8,1.8-1.2,2.8-1.5c10.2-3.4,20.5-6.8,30.7-10.3
				c6.1-2,12.1-4.1,18.2-6.1c2.2-0.7,4.3-0.6,6.3,0.5c1.5,0.8,2.4,2,3.1,3.5c0.1,0.2,0.1,0.4,0.2,0.6c8,23.9,16,47.8,24,71.6
				c0.8,2.5,0.5,4.7-1,6.8c-0.9,1.3-2.2,2.2-3.8,2.7c-5.7,1.9-11.5,3.8-17.2,5.7c-0.6,0.2-1,0.5-1.3,1.1c-1.8,3.8-3.7,7.5-5.6,11.3
				c-0.8,1.6-1.6,3.2-2.5,4.8c-0.5,1.1-1.4,1.6-2.6,1.5c-1.2-0.1-1.9-0.8-2.3-1.9c-1.1-3.3-2.2-6.6-3.3-9.9
				C712.9,859.9,712.9,859.6,712.7,859.2z M719.2,862.2c0.1,0,0.1,0,0.2,0c0.1-0.2,0.3-0.4,0.4-0.7c1.8-3.6,3.6-7.1,5.3-10.7
				c0.5-1.1,1.3-1.8,2.5-2.2c6.1-2,12.1-4,18.1-6.1c1.8-0.6,2.3-1.5,1.7-3.3c-7.9-23.7-15.8-47.3-23.8-71c-0.6-1.7-1.5-2.2-3.1-1.6
				c-3,1-6.1,2-9.1,3c-2.2,0.7-4.3,1.5-6.4,2.2c-2.8,0.9-5.6,1.8-8.3,2.7c-2.3,0.8-4.6,1.6-6.9,2.3c-2.7,0.9-5.5,1.8-8.2,2.7
				c-2.4,0.8-4.8,1.7-7.2,2.5c-1.1,0.4-2.2,0.6-3.2,1.1c-1.3,0.6-1.6,1.5-1.2,2.8c0.5,1.5,1,3,1.5,4.6c0.2,0.6,0.5,0.9,1,1.1
				c2.4,1.1,4.6,2.5,6.7,4c3.4,2.5,6.4,5.6,8.8,9.1c2,2.8,3.6,5.9,4.8,9.2c0.8,2,1.3,4.1,1.7,6.1c0.9,3.9,1,7.9,0.6,11.8
				c-0.5,5.1-1.9,10-4.3,14.6c-0.3,0.5-0.3,0.9-0.1,1.4c1.2,3.6,2.4,7.2,3.6,10.8c0.1,0.3,0.2,0.5,0.3,0.9c0.4-0.1,0.6-0.2,0.9-0.3
				c3.1-1,6.2-2.1,9.3-3.1c2.8-0.9,5.6-1.9,8.3-2.8c1.6-0.5,2.9,0.1,3.4,1.7c0.5,1.3,0.9,2.6,1.3,3.9
				C718.5,860.1,718.9,861.2,719.2,862.2z M645.6,873.8c2.4-3.2,4.7-6.2,7-9.2c0.6-0.7,1.3-1.1,2.2-1.1c4.8,0,9.5-0.9,13.9-2.8
				c2.4-1,4.7-2.3,6.9-3.8c5.1-3.7,8.9-8.4,11.5-14.1c2.6-5.8,3.6-11.9,3-18.2c-0.4-3.5-1.2-6.8-2.6-10.1c-1.7-3.9-3.9-7.4-6.9-10.5
				c-5.5-5.7-12.2-9.2-20-10.5c-5-0.8-9.9-0.5-14.8,0.8c-2.7,0.7-5.3,1.8-7.8,3.1c-5.4,2.9-9.7,7-12.9,12.1c-2.5,3.9-4.2,8.2-5,12.8
				c-0.9,5-0.7,9.9,0.5,14.7c1.3,5.1,3.6,9.7,7,13.7c2.3,2.8,5,5.2,8.1,7.2c2.2,1.4,4.4,2.5,6.8,3.4c1.1,0.4,1.8,1.2,1.9,2.4
				c0.2,2.2,0.5,4.3,0.7,6.5C645.3,871.3,645.4,872.5,645.6,873.8z M687,853c-8.1,9.9-18.3,15.1-31,15.7c-2,2.7-4,5.3-6.1,8
				c-1.4,1.8-2.7,3.6-4,5.4c-0.4,0.6-1,1-1.7,1.2c-1.6,0.2-2.9-0.8-3.1-2.5c-0.2-1.5-0.3-3-0.5-4.5c-0.4-3.3-0.8-6.6-1.1-10
				c0-0.4-0.1-0.7-0.5-0.9c-1.5-0.7-2.9-1.4-4.4-2.1c-0.2-0.1-0.5-0.2-0.7-0.1c-1,0.3-2.1,0.7-3.1,1c-0.6,0.2-1,0.7-1.2,1.2
				c-0.3,0.6-0.1,1.2,0.1,1.8c4.4,13.2,8.9,26.5,13.3,39.7c0.1,0.2,0.1,0.5,0.2,0.7c0.4,0.9,1.4,1.3,2.3,1.1
				c0.3-0.1,0.6-0.2,0.9-0.3c9.1-3.1,18.3-6.1,27.4-9.2c1.3-0.5,2.4-0.3,3.6,0.4c2.3,1.4,4.7,2.7,7,4.1c0.8,0.5,1.7,0.9,2.5,1.4
				c0.1,0,0.1-0.1,0.2-0.1c-0.3-0.8-0.6-1.5-0.9-2.3c-0.5-1.4-0.8-2.9-1.3-4.2s0.2-3,1.7-3.5c3-1,6.1-2,9.1-3
				c4.3-1.4,8.5-2.8,12.8-4.3c1.6-0.6,2.1-1.6,1.5-3.2c-2.3-7-4.7-13.9-7-20.9c-0.1-0.3-0.2-0.5-0.4-0.9c-0.4,0.1-0.7,0.2-1,0.3
				c-2.4,0.8-4.7,1.5-7.1,2.4c-2,0.7-3.4-0.1-4-2c-1-3.1-2.1-6.2-3.1-9.4C687.2,853.7,687.1,853.4,687,853z"/>
			<path d="M712.7,854c-1.8,0.6-3.4,1.1-5.2,1.7c0.1,0.4,0.3,0.8,0.4,1.1c2.3,6.9,4.7,13.9,7,20.8c0.9,2.6,0.5,5.1-1.3,7.3
				c-0.8,1-1.9,1.8-3.2,2.2c-6.3,2.1-12.5,4.2-18.8,6.3c-0.3,0.1-0.7,0.2-1.1,0.4c0.1,0.4,0.2,0.7,0.3,1c1.1,3.3,2.2,6.5,3.3,9.8
				c0.5,1.6-0.3,3.2-1.8,3.6c-0.8,0.2-1.5,0-2.1-0.4c-1.6-0.9-3.2-1.8-4.9-2.8c-2.8-1.6-5.6-3.3-8.4-4.9c-0.1,0-0.2-0.1-0.2-0.1
				c-1.1-1-2.2-0.8-3.6-0.4c-8.5,2.9-17.1,5.8-25.7,8.6c-3.2,1.1-6.6,0-8.5-2.8c-0.4-0.6-0.8-1.3-1-2.1
				c-4.5-13.3-8.9-26.6-13.4-39.9c-1.1-3.3,0-6.7,2.7-8.6c0.5-0.3,1-0.6,1.6-0.9c-8-6.7-12.6-15.3-14.1-25.5
				c-1.4-10.2,0.9-19.7,6.7-28.3c3.1-4.7,7.1-8.5,11.9-11.5c4.8-3,10-4.9,15.6-5.8c5.6-0.9,11.1-0.6,16.7,1
				c-0.2-0.5-0.3-0.9-0.4-1.3c-1.1-3.2-0.3-5.9,2.1-8.2c0.8-0.8,1.8-1.2,2.8-1.5c10.2-3.4,20.5-6.8,30.7-10.3
				c6.1-2,12.1-4.1,18.2-6.1c2.2-0.7,4.3-0.6,6.3,0.5c1.5,0.8,2.4,2,3.1,3.5c0.1,0.2,0.1,0.4,0.2,0.6c8,23.9,16,47.8,24,71.6
				c0.8,2.5,0.5,4.7-1,6.8c-0.9,1.3-2.2,2.2-3.8,2.7c-5.7,1.9-11.5,3.8-17.2,5.7c-0.6,0.2-1,0.5-1.3,1.1c-1.8,3.8-3.7,7.5-5.6,11.3
				c-0.8,1.6-1.6,3.2-2.5,4.8c-0.5,1.1-1.4,1.6-2.6,1.5c-1.2-0.1-1.9-0.8-2.3-1.9c-1.1-3.3-2.2-6.6-3.3-9.9
				C712.9,854.7,712.9,854.4,712.7,854z M719.2,857c0.1,0,0.1,0,0.2,0c0.1-0.2,0.3-0.4,0.4-0.7c1.8-3.6,3.6-7.1,5.3-10.7
				c0.5-1.1,1.3-1.8,2.5-2.2c6.1-2,12.1-4,18.1-6.1c1.8-0.6,2.3-1.5,1.7-3.3c-7.9-23.7-15.8-47.3-23.8-71c-0.6-1.7-1.5-2.2-3.1-1.6
				c-3,1-6.1,2-9.1,3c-2.2,0.7-4.3,1.5-6.4,2.2c-2.8,0.9-5.6,1.8-8.3,2.7c-2.3,0.8-4.6,1.6-6.9,2.3c-2.7,0.9-5.5,1.8-8.2,2.7
				c-2.4,0.8-4.8,1.7-7.2,2.5c-1.1,0.4-2.2,0.6-3.2,1.1c-1.3,0.6-1.6,1.5-1.2,2.8c0.5,1.5,1,3,1.5,4.6c0.2,0.6,0.5,0.9,1,1.1
				c2.4,1.1,4.6,2.5,6.7,4c3.4,2.5,6.4,5.6,8.8,9.1c2,2.8,3.6,5.9,4.8,9.2c0.8,2,1.3,4.1,1.7,6.1c0.9,3.9,1,7.9,0.6,11.8
				c-0.5,5.1-1.9,10-4.3,14.6c-0.3,0.5-0.3,0.9-0.1,1.4c1.2,3.6,2.4,7.2,3.6,10.8c0.1,0.3,0.2,0.5,0.3,0.9c0.4-0.1,0.6-0.2,0.9-0.3
				c3.1-1,6.2-2.1,9.3-3.1c2.8-0.9,5.6-1.9,8.3-2.8c1.6-0.5,2.9,0.1,3.4,1.7c0.5,1.3,0.9,2.6,1.3,3.9
				C718.5,854.8,718.9,855.9,719.2,857z M645.6,868.5c2.4-3.2,4.7-6.2,7-9.2c0.6-0.7,1.3-1.1,2.2-1.1c4.8,0,9.5-0.9,13.9-2.8
				c2.4-1,4.7-2.3,6.9-3.8c5.1-3.7,8.9-8.4,11.5-14.1c2.6-5.8,3.6-11.9,3-18.2c-0.4-3.5-1.2-6.8-2.6-10.1c-1.7-3.9-3.9-7.4-6.9-10.5
				c-5.5-5.7-12.2-9.2-20-10.5c-5-0.8-9.9-0.5-14.8,0.8c-2.7,0.7-5.3,1.8-7.8,3.1c-5.4,2.9-9.7,7-12.9,12.1c-2.5,3.9-4.2,8.2-5,12.8
				c-0.9,5-0.7,9.9,0.5,14.7c1.3,5.1,3.6,9.7,7,13.7c2.3,2.8,5,5.2,8.1,7.2c2.2,1.4,4.4,2.5,6.8,3.4c1.1,0.4,1.8,1.2,1.9,2.4
				c0.2,2.2,0.5,4.3,0.7,6.5C645.3,866.1,645.4,867.2,645.6,868.5z M687,847.7c-8.1,9.9-18.3,15.1-31,15.7c-2,2.7-4,5.3-6.1,8
				c-1.4,1.8-2.7,3.6-4,5.4c-0.4,0.6-1,1-1.7,1.2c-1.6,0.2-2.9-0.8-3.1-2.5c-0.2-1.5-0.3-3-0.5-4.5c-0.4-3.3-0.8-6.6-1.1-10
				c0-0.4-0.1-0.7-0.5-0.9c-1.5-0.7-2.9-1.4-4.4-2.1c-0.2-0.1-0.5-0.2-0.7-0.1c-1,0.3-2.1,0.7-3.1,1c-0.6,0.2-1,0.7-1.2,1.2
				c-0.3,0.6-0.1,1.2,0.1,1.8c4.4,13.2,8.9,26.5,13.3,39.7c0.1,0.2,0.1,0.5,0.2,0.7c0.4,0.9,1.4,1.3,2.3,1.1
				c0.3-0.1,0.6-0.2,0.9-0.3c9.1-3.1,18.3-6.1,27.4-9.2c1.3-0.5,2.4-0.3,3.6,0.4c2.3,1.4,4.7,2.7,7,4.1c0.8,0.5,1.7,0.9,2.5,1.4
				c0.1,0,0.1-0.1,0.2-0.1c-0.3-0.8-0.6-1.5-0.9-2.3c-0.5-1.4-0.8-2.9-1.3-4.2s0.2-3,1.7-3.5c3-1,6.1-2,9.1-3
				c4.3-1.4,8.5-2.8,12.8-4.3c1.6-0.6,2.1-1.6,1.5-3.2c-2.3-7-4.7-13.9-7-20.9c-0.1-0.3-0.2-0.5-0.4-0.9c-0.4,0.1-0.7,0.2-1,0.3
				c-2.4,0.8-4.7,1.5-7.1,2.4c-2,0.7-3.4-0.1-4-2c-1-3.1-2.1-6.2-3.1-9.4C687.2,848.4,687.1,848.1,687,847.7z"/>
			<path class="st31" d="M719.2,857c-0.4-1.1-0.7-2.2-1.1-3.3c-0.4-1.3-0.9-2.6-1.3-3.9c-0.5-1.5-1.9-2.2-3.4-1.7
				c-2.8,0.9-5.6,1.9-8.3,2.8c-3.1,1-6.2,2.1-9.3,3.1c-0.3,0.1-0.6,0.2-0.9,0.3c-0.1-0.3-0.3-0.6-0.3-0.9c-1.2-3.6-2.4-7.2-3.6-10.8
				c-0.2-0.5-0.1-0.9,0.1-1.4c2.4-4.6,3.8-9.5,4.3-14.6c0.4-4,0.2-7.9-0.6-11.8c-0.5-2.1-1-4.1-1.7-6.1c-1.2-3.2-2.8-6.3-4.8-9.2
				c-2.5-3.5-5.4-6.5-8.8-9.1c-2.1-1.6-4.3-2.9-6.7-4c-0.5-0.2-0.8-0.6-1-1.1c-0.5-1.5-1-3-1.5-4.6c-0.4-1.3-0.1-2.3,1.2-2.8
				c1-0.4,2.1-0.7,3.2-1.1c2.4-0.8,4.8-1.7,7.2-2.5c2.7-0.9,5.5-1.8,8.2-2.7c2.3-0.8,4.6-1.6,6.9-2.3c2.8-0.9,5.6-1.8,8.3-2.7
				c2.2-0.7,4.3-1.5,6.4-2.2c3-1,6-2,9.1-3c1.7-0.5,2.5,0,3.1,1.6c7.9,23.7,15.8,47.3,23.8,71c0.6,1.8,0.1,2.7-1.7,3.3
				c-6,2-12.1,4.1-18.1,6.1c-1.2,0.4-2,1.1-2.5,2.2c-1.7,3.6-3.6,7.2-5.3,10.7c-0.1,0.2-0.3,0.5-0.4,0.7
				C719.4,857,719.3,857,719.2,857z M701,792.5c-0.3,1.8-2.1,35.6-1.9,36.2c1.6-0.5,3.1-1,4.7-1.6c0.1-3.3,0.3-6.6,0.4-9.9
				c4.7-1.6,9.4-3.1,14.1-4.7c2.1,2.6,4.3,5.1,6.4,7.6c1.7-0.6,3.2-1.1,4.9-1.7c-7.9-9.3-15.6-18.5-23.5-27.7
				C704.4,791.4,702.7,792,701,792.5z"/>
			<path class="st32" d="M645.6,868.5c-0.2-1.3-0.3-2.5-0.4-3.6c-0.3-2.2-0.5-4.3-0.7-6.5c-0.1-1.3-0.8-2-1.9-2.4
				c-2.4-0.9-4.7-2-6.8-3.4c-3.1-2-5.7-4.4-8.1-7.2c-3.4-4-5.7-8.7-7-13.7c-1.3-4.8-1.4-9.7-0.5-14.7c0.8-4.6,2.5-8.9,5-12.8
				c3.3-5.1,7.6-9.2,12.9-12.1c2.5-1.4,5.1-2.4,7.8-3.1c4.9-1.3,9.8-1.6,14.8-0.8c7.8,1.3,14.5,4.8,20,10.5c3,3.1,5.2,6.6,6.9,10.5
				c1.4,3.2,2.3,6.6,2.6,10.1c0.6,6.3-0.3,12.4-3,18.2c-2.6,5.7-6.5,10.4-11.5,14.1c-2.1,1.6-4.4,2.8-6.9,3.8
				c-4.4,1.9-9.1,2.8-13.9,2.8c-0.9,0-1.6,0.4-2.2,1.1C650.3,862.3,648,865.4,645.6,868.5z M652.3,813.2c-0.2-1.5-0.5-2.9-0.7-4.3
				c0-0.3,0.1-0.6,0.2-0.9c0-0.3,0.1-0.6,0.1-0.8c-0.3,0-0.6-0.1-0.9,0c-1,0.2-1.9,0.5-2.9,0.8c-0.4,0.1-0.8,0.2-1.2,0.3
				c0.6,2.1,1.5,4,1.7,6.1c-3.6,1.4-7.4,2.3-11,3.4c0.4,1.3,0.9,2.5,1.3,3.8c3.4-1.3,6.8-2.7,10.3-3.8c0.8,8.8-1.5,16.8-5.8,24.3
				c1.4,0.2,2.7,0.5,4.2,0.7c3-5.5,4.2-11.6,5-17.9c3.8-1.3,7.6-2.5,11.4-3.8c0.2,3.6-0.1,7.1-1.4,10.5c-2.8-1.5-4.6-3.9-6.7-6
				c-0.9,0.8-1.7,1.5-2.5,2.2c1.1,1.4,2.3,2.7,3.6,3.7s2.7,2,4.1,3.1c-0.8,1-1.6,2-2.4,3c-2.1,2.2-4.5,4-7,5.7
				c-0.3,0.2-0.5,0.4-0.7,0.5c1.1,0.9,2.2,1.8,3.2,2.7c4-2.8,7.6-6,10.1-10.3c4.8,1.4,9.5,1.4,14.3,1c0.2-1.7,0.3-3.4,0.5-5
				c-4.3,1-8.6,1.6-13.1,0.8c1-2.7,1.5-5.4,1.8-8.2s0.3-5.5-0.1-8.3c-5,1.7-9.8,3.3-14.7,4.9c-0.1-1.7-0.1-3.3-0.2-4.9
				c6.3-2,12.5-4,18.8-6c-0.4-1.2-0.8-2.4-1.2-3.6C664.3,809.1,658.3,811.1,652.3,813.2z"/>
			<path class="st33" d="M687,847.7c0.1,0.4,0.2,0.7,0.3,1c1,3.1,2.1,6.2,3.1,9.4c0.6,1.9,2,2.7,4,2c2.3-0.9,4.7-1.6,7.1-2.4
				c0.3-0.1,0.6-0.2,1-0.3c0.1,0.3,0.3,0.6,0.4,0.9c2.3,7,4.7,13.9,7,20.9c0.5,1.6,0.1,2.6-1.5,3.2c-4.3,1.5-8.5,2.9-12.8,4.3
				c-3,1-6.1,2.1-9.1,3c-1.5,0.5-2.2,2.1-1.7,3.5s0.9,2.8,1.3,4.2c0.3,0.8,0.6,1.5,0.9,2.3c-0.1,0-0.1,0.1-0.2,0.1
				c-0.8-0.5-1.7-0.9-2.5-1.4c-2.3-1.3-4.7-2.7-7-4.1c-1.2-0.7-2.3-0.9-3.6-0.4c-9.1,3.1-18.2,6.1-27.4,9.2
				c-0.3,0.1-0.6,0.2-0.9,0.3c-0.9,0.2-1.9-0.2-2.3-1.1c-0.1-0.2-0.2-0.4-0.2-0.7c-4.4-13.2-8.9-26.5-13.3-39.7
				c-0.2-0.6-0.4-1.2-0.1-1.8c0.2-0.6,0.6-1,1.2-1.2c1-0.4,2.1-0.7,3.1-1c0.2-0.1,0.5,0,0.7,0.1c1.5,0.7,2.9,1.4,4.4,2.1
				c0.4,0.2,0.4,0.5,0.5,0.9c0.4,3.3,0.8,6.6,1.1,10c0.2,1.5,0.3,3,0.5,4.5c0.2,1.7,1.5,2.7,3.1,2.5c0.8-0.1,1.3-0.6,1.7-1.2
				c1.4-1.8,2.7-3.6,4-5.4c2-2.7,4-5.3,6.1-8C668.7,862.8,678.9,857.6,687,847.7z M688.9,871.4c-0.6,0.5-1.3,1.1-2,1.6
				c-2.1,1.3-4.2,2.5-6.3,3.7c-2.6,1.4-5.3,2.4-8.2,3.2c-2.1,0.6-4.3,1-6.6,0.9c-1.8-0.1-3.6-0.4-5.2-1.3c-2.3-1.4-3.4-3.5-3.9-6.1
				c-0.2-1.2-0.3-2.3-0.4-3.5c-0.2,0-0.5-0.1-0.7-0.1c-0.3,0-0.5,0-0.7,0c-0.8,2.7-0.1,7.5,1.4,10.2c1.7,3.1,4.3,4.8,7.7,5.4
				c1.8,0.3,3.6,0.2,5.4,0c2.3-0.3,4.6-0.8,6.7-1.7c2.4-1,4.8-2.2,7.2-3.5c2.7-1.4,5.2-3.1,7.3-5.2c0.2-0.2,0.5-0.5,0.5-0.8
				c0.7-2.4,0.5-4.7-0.6-6.9c-1.4-2.8-3.4-5.2-5.7-7.3c-0.1-0.1-0.3-0.2-0.5-0.2c-0.6,1.2-0.8,2.5-1.1,3.7c-0.1,0.6,0,1,0.4,1.4
				c1.4,1.5,2.8,3,4.2,4.5C688.4,870,688.8,870.6,688.9,871.4z M681.8,887.3c-1.7-0.7-3.4-1.4-5.1-2.2c-0.5,1.5-1,2.9-1.6,4.3
				c1.7,0.7,3.3,1.4,5,2C681,890.3,681.4,888.9,681.8,887.3z"/>
			<path d="M701,792.5c1.7-0.6,3.4-1.1,5.1-1.7c7.8,9.2,15.6,18.4,23.5,27.7c-1.7,0.6-3.3,1.1-4.9,1.7c-2.1-2.5-4.2-5.1-6.4-7.6
				c-4.7,1.6-9.4,3.1-14.1,4.7c-0.1,3.3-0.3,6.5-0.4,9.9c-1.6,0.5-3.1,1.1-4.7,1.6C698.9,828.2,700.7,794.3,701,792.5z M704.4,812.3
				c3.7-1.2,7.2-2.4,10.8-3.6c-3.4-4.1-6.7-8.1-10.1-12.2C704.8,801.9,704.6,807.1,704.4,812.3z"/>
			<path d="M652.3,813.2c6.1-2.1,12-4.1,18-6.4c0.4,1.3,0.8,2.4,1.2,3.6c-6.3,2-12.5,4-18.8,6c0.1,1.7,0.1,3.3,0.2,4.9
				c4.9-1.6,9.7-3.3,14.7-4.9c0.3,2.7,0.3,5.5,0.1,8.3c-0.3,2.8-0.8,5.5-1.8,8.2c4.5,0.8,8.8,0.3,13.1-0.8c-0.2,1.7-0.3,3.3-0.5,5
				c-4.7,0.4-9.5,0.4-14.3-1c-2.5,4.2-6,7.4-10.1,10.3c-1-0.9-2.1-1.7-3.2-2.7c0.2-0.2,0.5-0.4,0.7-0.5c2.6-1.6,5-3.4,7-5.7
				c0.9-0.9,1.6-2,2.4-3c-1.4-1.1-2.8-2.1-4.1-3.1s-2.5-2.3-3.6-3.7c0.8-0.7,1.6-1.4,2.5-2.2c2.1,2.1,3.9,4.5,6.7,6
				c1.3-3.4,1.6-6.9,1.4-10.5c-3.8,1.3-7.6,2.5-11.4,3.8c-0.8,6.2-2,12.4-5,17.9c-1.5-0.3-2.8-0.5-4.2-0.7
				c4.3-7.4,6.5-15.4,5.8-24.3c-3.5,1.1-6.9,2.5-10.3,3.8c-0.4-1.2-0.8-2.5-1.3-3.8c3.7-1.1,7.4-2.1,11-3.4c-0.3-2.1-1.1-4-1.7-6.1
				c0.5-0.1,0.8-0.2,1.2-0.3c1-0.3,1.9-0.5,2.9-0.8c0.3-0.1,0.6,0,0.9,0c0,0.3,0,0.6-0.1,0.8c0,0.3-0.2,0.6-0.2,0.9
				C651.8,810.3,652,811.7,652.3,813.2z"/>
			<path d="M688.9,871.4c-0.1-0.9-0.5-1.5-1-2c-1.4-1.5-2.8-3.1-4.2-4.5c-0.4-0.4-0.6-0.8-0.4-1.4c0.3-1.2,0.5-2.5,1.1-3.7
				c0.2,0.1,0.3,0.1,0.5,0.2c2.3,2.1,4.4,4.4,5.7,7.3c1.1,2.2,1.2,4.5,0.6,6.9c-0.1,0.3-0.3,0.6-0.5,0.8c-2.2,2.1-4.7,3.8-7.3,5.2
				c-2.3,1.3-4.7,2.4-7.2,3.5c-2.1,0.9-4.4,1.4-6.7,1.7c-1.8,0.2-3.6,0.3-5.4,0c-3.4-0.6-6-2.3-7.7-5.4c-1.5-2.8-2.2-7.5-1.4-10.2
				c0.2,0,0.5,0,0.7,0s0.5,0.1,0.7,0.1c0.1,1.2,0.2,2.4,0.4,3.5c0.5,2.6,1.6,4.7,3.9,6.1c1.6,0.9,3.4,1.2,5.2,1.3
				c2.2,0.1,4.4-0.3,6.6-0.9c2.8-0.8,5.6-1.8,8.2-3.2c2.1-1.2,4.2-2.4,6.3-3.7C687.6,872.6,688.3,872,688.9,871.4z"/>
			<path d="M681.8,887.3c-0.4,1.6-0.8,3-1.7,4.2c-1.7-0.7-3.3-1.3-5-2c0.5-1.4,1-2.8,1.6-4.3C678.5,885.9,680.1,886.6,681.8,887.3z"
				/>
			<path class="st31" d="M704.4,812.3c0.2-5.3,0.4-10.4,0.6-15.8c3.4,4.1,6.7,8.1,10.1,12.2C711.6,809.9,708.1,811.1,704.4,812.3z"
				/>
		</g>
	</g>
</g>
<g>
	<path class="st34" d="M207.9,488.5c48.5,36,54.8,112,4.2,148.5c-49.3,35.6-96.9,37.3-131,21.3C37.3,637.8,4.4,560.7,64,505.8
		C101.7,471.2,163.5,455.6,207.9,488.5z"/>
	<path class="st35" d="M210.6,505.8c-13.2-22.1-45.7-27.1-68.8-23.1c-17,3-39.3,12-57.1,25.4c-53,39.6-45.4,94.7,10.6,93.7
		c10.3-0.2,20.7-2.3,30.6-4.9c24.9-6.4,50.7-16.1,70.9-32.3C214.9,550.2,222.8,526.3,210.6,505.8z"/>
	<g>
		<path class="st22" d="M228,508.8c5.3,8.1,9.8,16.6,12.7,26.8c5.2,18.1,2.6,37.5-5.1,54.4c-14.2,31-47.8,46.7-78.5,56.5
			c-31.9,10.2-70,12.2-95.8-12.5c-24.7-23.6-25.7-60.3-22.7-92.6c-20.2,48.4,7.6,100.6,42.5,117c34.1,16,81.6,14.3,131-21.3
			C254.5,606.4,256.9,548.1,228,508.8z"/>
	</g>
</g>
<g>
	<g id="JLsdeU_00000059298392341239948590000001848928138809261959_">
		<g>
			<path class="st22" d="M87.9,547.2c-1.2,2.5-2.3,5.1-3.6,7.5c-1.7,3.2-4.9,4.2-7.6,2.6c-2.6-1.5-3.3-4.6-1.7-7.6
				c3.5-6.3,7-12.5,10.5-18.8c1.7-3,4.7-3.9,7.7-2.2c6.3,3.5,12.5,7,18.7,10.6c3.2,1.8,4.1,4.9,2.5,7.6c-1.5,2.6-4.6,3.3-7.7,1.6
				c-2.4-1.4-4.8-2.9-7.1-4.4c-0.2,0.2-0.3,0.4-0.5,0.6c5.7,20.3,11.4,40.6,17.3,61.5c1.5-2.6,2.7-5,4.1-7.2
				c0.7-1.2,1.6-2.4,2.8-3.1c2.2-1.3,4.4-0.9,6.2,1c1.7,1.8,2,4.1,0.8,6.3c-2.9,5.3-6.1,10.4-8.8,15.8c-3.6,7-5.8,8.2-13.2,3.6
				c-4.9-3.1-10-5.7-15-8.5c-3.2-1.8-4.3-4.8-2.8-7.5c1.5-2.8,4.7-3.5,8.1-1.6c2.3,1.3,4.5,2.9,6.8,4.4c0.2-0.3,0.4-0.6,0.6-0.9
				c-5.7-20.3-11.4-40.6-17.1-60.8C88.5,547.5,88.2,547.4,87.9,547.2z"/>
			<path class="st22" d="M151.9,526.9c-8.8,2.5-17.6,5-26.4,7.4c-1.3,0.3-2.6,0.7-3.9,0.6c-2.5-0.4-4-2-4.4-4.5
				c-0.3-2.4,0.8-4.2,2.9-5.3c0.7-0.4,1.6-0.5,2.4-0.8c17.8-5,35.6-10,53.3-15c1-0.3,2-0.6,3-0.6c2.5,0.1,4.5,1.9,4.9,4.3
				c0.4,2.7-0.6,4.7-3.1,5.6c-3.2,1.1-6.5,2-9.8,2.9C164.6,523.3,158.3,525.1,151.9,526.9z"/>
			<path class="st22" d="M163.8,567.9c9-2.5,18-4.9,26.9-7.6c4.1-1.2,6.7,0.8,7.4,3.4c0.8,3.1-0.9,5.6-4.5,6.6
				c-18.2,5.1-36.5,10.2-54.7,15.3c-3.5,1-6.3-0.4-7.1-3.5c-0.8-3,0.8-5.5,4.2-6.5C145.3,573.1,154.5,570.5,163.8,567.9z"/>
			<path class="st22" d="M163.2,606.4c-5.6,1.6-11.2,3.2-16.9,4.7c-3.7,1-6.4-0.2-7.3-3.2c-1-3.2,0.6-5.8,4.5-6.8
				c11.3-3.2,22.7-6.4,34-9.5c3.8-1.1,6.6,0.3,7.4,3.5c0.8,3.1-0.9,5.5-4.6,6.6C174.6,603.2,168.9,604.8,163.2,606.4z"/>
			<path class="st22" d="M148.9,555.2c-5.7,1.6-11.4,3.2-17.1,4.8c-3.6,1-6.3-0.4-7.1-3.5c-0.8-3,0.8-5.5,4.2-6.5
				c11.5-3.3,23-6.5,34.5-9.7c3.5-1,6.3,0.4,7.2,3.5c0.8,3-0.8,5.5-4.2,6.5C160.5,552,154.7,553.6,148.9,555.2z"/>
		</g>
	</g>
	<g id="JLsdeU_00000021808082617657653140000018151190687166075815_">
		<g>
			<path class="st12" d="M88.4,541.4c-1.2,2.5-2.3,5.1-3.6,7.5c-1.7,3.2-4.9,4.2-7.6,2.6c-2.6-1.5-3.3-4.6-1.7-7.6
				c3.5-6.3,7-12.5,10.5-18.8c1.7-3,4.7-3.9,7.7-2.2c6.3,3.5,12.5,7,18.7,10.6c3.2,1.8,4.1,4.9,2.5,7.6c-1.5,2.6-4.6,3.3-7.7,1.6
				c-2.4-1.4-4.8-2.9-7.1-4.4c-0.2,0.2-0.3,0.4-0.5,0.6c5.7,20.3,11.4,40.6,17.3,61.5c1.5-2.6,2.7-5,4.1-7.2
				c0.7-1.2,1.6-2.4,2.8-3.1c2.2-1.3,4.4-0.9,6.2,1c1.7,1.8,2,4.1,0.8,6.3c-2.9,5.3-6.1,10.4-8.8,15.8c-3.6,7-5.8,8.2-13.2,3.6
				c-4.9-3.1-10-5.7-15-8.5c-3.2-1.8-4.3-4.8-2.8-7.5c1.5-2.8,4.7-3.5,8.1-1.6c2.3,1.3,4.5,2.9,6.8,4.4c0.2-0.3,0.4-0.6,0.6-0.9
				c-5.7-20.3-11.4-40.6-17.1-60.8C89,541.7,88.7,541.6,88.4,541.4z"/>
			<path class="st12" d="M152.4,521.1c-8.8,2.5-17.6,5-26.4,7.4c-1.3,0.3-2.6,0.7-3.9,0.6c-2.5-0.4-4-2-4.4-4.5
				c-0.3-2.4,0.8-4.2,2.9-5.3c0.7-0.4,1.6-0.5,2.4-0.8c17.8-5,35.6-10,53.3-15c1-0.3,2-0.6,3-0.6c2.5,0.1,4.5,1.9,4.9,4.3
				c0.4,2.7-0.6,4.7-3.1,5.6c-3.2,1.1-6.5,2-9.8,2.9C165.1,517.5,158.8,519.3,152.4,521.1z"/>
			<path class="st12" d="M164.3,562.1c9-2.5,18-4.9,26.9-7.6c4.1-1.2,6.7,0.8,7.4,3.4c0.8,3.1-0.9,5.6-4.5,6.6
				c-18.2,5.1-36.5,10.2-54.7,15.3c-3.5,1-6.3-0.4-7.1-3.5c-0.8-3,0.8-5.5,4.2-6.5C145.8,567.2,155,564.7,164.3,562.1z"/>
			<path class="st12" d="M163.7,600.6c-5.6,1.6-11.2,3.2-16.9,4.7c-3.7,1-6.4-0.2-7.3-3.2c-1-3.2,0.6-5.8,4.5-6.8
				c11.3-3.2,22.7-6.4,34-9.5c3.8-1.1,6.6,0.3,7.4,3.5c0.8,3.1-0.9,5.5-4.6,6.6C175.1,597.4,169.4,599,163.7,600.6z"/>
			<path class="st12" d="M149.4,549.4c-5.7,1.6-11.4,3.2-17.1,4.8c-3.6,1-6.3-0.4-7.1-3.5c-0.8-3,0.8-5.5,4.2-6.5
				c11.5-3.3,23-6.5,34.5-9.7c3.5-1,6.3,0.4,7.2,3.5c0.8,3-0.8,5.5-4.2,6.5C161,546.2,155.2,547.8,149.4,549.4z"/>
		</g>
	</g>
</g>
<g>
	<path d="M558.9,347.7c-0.3,0-0.5-0.1-0.8-0.4c-0.2-0.3-0.3-0.5-0.3-0.8c0-0.6-0.1-1.2-0.1-1.9c0-1.8,0.2-4.6,0.6-8.2
		c0.4-3.6,0.6-6.3,0.6-8.1c0-0.3-0.1-0.4-0.4-0.4c0,0-0.5,0.1-1.4,0.4c-0.2,0-0.7,0.2-1.3,0.6c-0.6,0.3-1.1,0.5-1.5,0.5
		s-0.7-0.1-1-0.4s-0.4-0.6-0.4-1c0-0.7,0.3-1.2,1-1.6c2.6-1.3,5.4-2,8.5-2h3.1c0.9,0,1.7,0,2.5,0c0.1,0,0.2,0.1,0.3,0.3
		c0.1,0.2,0.2,0.3,0.2,0.4c0.1,0.2,0.1,0.3,0.1,0.5c0,0.9-0.6,1.5-1.7,1.9c-0.1,0-1.5,0.1-3.9,0.3c-0.9,4.2-1.4,10.2-1.6,18.2
		c0,0.4-0.3,0.8-0.9,1.2C559.9,347.5,559.3,347.7,558.9,347.7z"/>
	<path d="M578.1,348.5c-0.2-0.1-0.4-0.4-0.6-0.8c-0.2-0.3-0.4-0.5-0.6-0.5c-1.3-0.2-2.6-0.4-3.9-0.7c-1.4-0.4-2.5-1.1-3.1-2.1
		c-0.4-0.5-0.6-1.2-0.6-2.1c0-1.2,0.3-2.3,0.9-3.1c1.5-2,3.6-3,6.5-3c1.2,0,1.8,0,1.8,0.1c0.2-0.3,0.3-0.7,0.3-1.2
		c0-0.6-0.2-1-0.5-1.1c-0.4-0.1-0.7-0.1-1.1-0.1c-0.6,0-1.3,0.1-2.1,0.4s-1.5,0.6-2.3,0.8c-0.1,0-0.2,0.1-0.3,0.1
		c-0.4,0-0.7-0.3-1-0.8c-0.2-0.4-0.3-0.9-0.3-1.4c0-0.3,0-0.5,0.1-0.6c1.6-1.1,3.4-1.7,5.5-1.7s3.6,0.8,4.3,2.3
		c0.4,0.8,0.6,1.7,0.6,2.7c0,0.8-0.2,1.9-0.5,3.4c-0.4,1.6-0.6,2.8-0.7,3.5c-0.1,1.8-0.2,3.1-0.4,3.7c-0.3,1.5-0.8,2.2-1.4,2.2
		C578.5,348.7,578.3,348.7,578.1,348.5z M577.5,344.1c0.1-0.3,0.2-1,0.5-1.8c0.2-0.7,0.3-1.2,0.3-1.7s-0.1-1-0.3-1.5
		c-1.2,0.3-2.5,0.5-3.7,0.8c-1.4,0.4-2.2,1.3-2.2,2.6c0,0.6,0.5,1,1.6,1.4c1,0.4,1.9,0.6,2.9,0.6
		C577.1,344.3,577.4,344.2,577.5,344.1z M576.7,341.4c0,0.3-0.1,0.7-0.3,1.1s-0.5,0.6-0.7,0.6c-0.4,0-0.7-0.2-0.9-0.5
		s-0.3-0.7-0.3-1c0.1-0.5,0.5-0.8,1.2-0.8C576.3,340.8,576.7,341,576.7,341.4z"/>
	<path d="M582.3,335.9c0-2.3,0.8-3.5,2.4-3.5c0.3,0,0.6,0,1,0.1c0.7,0.2,1,0.7,1,1.4c0,0.2,0,0.6-0.1,1.2c-0.1,0.5-0.1,0.9-0.1,1.2
		c0,0.5,0.1,0.9,0.3,1.2c0.5-0.4,1-1.2,1.6-2.3c0.7-1.2,1.1-2,1.5-2.4c0.6-0.7,1.3-1.1,2.1-1.1c0.4,0,0.8,0.1,1.3,0.3l0.7,0.7
		c0.1,0.4,0.2,1.1,0.3,2.2c0.1,0.9,0.2,1.6,0.4,2.1c0.8-0.9,1.7-1.9,2.5-2.8c1.1-1,2.1-1.5,3.1-1.5c0.5,0,0.9,0.1,1.4,0.3
		c0.4,0.2,0.6,0.7,0.7,1.2c0,0.5,0,1,0.1,1.5c0.3,2,0.4,3.8,0.4,5.3c0,2.8-0.4,5.4-1.3,7.6c-0.2,0.8-0.8,1.1-1.9,1.1
		c-0.6,0-1.1-0.1-1.6-0.4c-0.1,0-0.2-0.1-0.2-0.4s0-0.6,0-0.8c0.7-2,1.1-4.2,1.1-6.6c0-1.4-0.1-2.8-0.4-4.3c0-0.2,0-0.3-0.1-0.3
		c-0.3,0-0.6,0.2-0.8,0.6c-1.2,2-2.4,4.5-3.5,7.5c-0.2,0.4-0.5,0.7-1,1s-1,0.4-1.5,0.4c-0.6,0-1-0.2-1.3-0.7s-0.4-1-0.4-1.7
		c0-0.4,0.1-1.1,0.2-2.1c0.1-1,0.2-1.7,0.2-2.2c0-0.6-0.1-1.2-0.3-1.7c-0.4,0.7-1,2-1.9,3.9c-0.7,1.6-1.4,2.9-1.9,3.7
		c-0.4,0.5-1,0.8-1.8,0.8s-1.3-0.3-1.6-0.9c-0.2-0.6-0.4-1.3-0.5-2.1c0-0.6-0.1-1.4,0-2.3c0-1.4,0.1-2.3,0.1-2.4
		c0-0.3,0-0.8-0.1-1.4C582.3,336.6,582.3,336.2,582.3,335.9z"/>
	<path d="M605.4,338.4c0-1.9,0.2-3.3,0.7-4.2c0.3-0.7,0.9-1,1.8-1c0.4,0,0.7,0.1,1.1,0.2c0.7,0.3,1,0.7,1,1.2c0,0.2-0.1,0.4-0.2,0.5
		c-0.4,0.6-0.7,1.4-0.7,2.4c-0.1,1.2-0.2,2-0.3,2.3s-0.2,0.7-0.2,1.2c0,0.3,0.1,0.8,0.2,1.4c0.1,0.6,0.2,1.1,0.2,1.5
		c0,0.3,0,0.7-0.1,1c0,0.3-0.2,0.5-0.4,0.5c-0.5,0.1-1,0.2-1.4,0.2c-0.8,0-1.3-0.3-1.5-0.9c-0.2-0.7-0.3-1.6-0.3-2.6
		c0-0.4,0-1.1,0.1-1.9C605.4,339.5,605.4,338.9,605.4,338.4z M606.4,330.2c-0.2-0.2-0.3-0.5-0.3-0.8c0-0.9,0.3-1.5,0.8-1.8
		s1.1-0.4,1.7-0.4c0.5,0,0.9,0.1,1.3,0.4c0.4,0.3,0.6,0.6,0.6,1.1c0,0.4-0.1,0.9-0.4,1.3c-0.3,0.5-0.6,0.8-0.8,0.9
		c-0.3,0.2-0.6,0.3-1,0.3C607.5,331.1,606.9,330.8,606.4,330.2z"/>
</g>
<g id="globoalto">
	<path class="st36" d="M207.9,488.5c48.5,36,54.8,112,4.2,148.5c-49.3,35.6-96.9,37.3-131,21.3C37.3,637.8,4.4,560.7,64,505.8
		C101.7,471.2,163.5,455.6,207.9,488.5z"/>
</g>
<g id="globocurioso">
	<path class="st37" d="M351.8,75.7c49.7,36.9,56.1,114.8,4.3,152.2c-50.6,36.5-99.3,38.2-134.2,21.8c-44.9-21-78.6-100-17.5-156.3
		C242.9,58,306.3,42,351.8,75.7z"/>
</g>
<g id="globopeso">
	<path class="st38" d="M900.4,233.4c50.3,37.3,56.8,116.1,4.4,153.9c-51.2,37-100.5,38.7-135.8,22.1
		c-45.4-21.3-79.5-101.2-17.7-158.1C790.3,215.5,854.4,199.3,900.4,233.4z"/>
</g>
<g id="globoidioma">
	<path class="st39" d="M760,762.8c49.2,36.5,55.6,113.6,4.3,150.7c-50.1,36.1-98.3,37.8-132.9,21.6c-44.4-20.8-77.8-99-17.3-154.7
		C652.2,745.2,715,729.4,760,762.8z"/>
</g>
<animate  accumulate="none" additive="replace" attributeName="display" begin="globopeso.mouseover" calcMode="linear" dur="0.2s" fill="freeze" from="none" restart="always" to="block">
	</animate>
<animate  accumulate="none" additive="replace" attributeName="display" begin="globopeso.mouseout" calcMode="linear" dur="0.5s" fill="freeze" from="block" restart="always" to="none">
	</animate>
<animate  accumulate="none" additive="replace" attributeName="display" begin="globocurioso.mouseover" calcMode="linear" dur="0.2s" fill="freeze" from="none" restart="always" to="block">
	</animate>
<animate  accumulate="none" additive="replace" attributeName="display" begin="globocurioso.mouseout" calcMode="linear" dur="0.5s" fill="freeze" from="block" restart="always" to="none">
	</animate>
<animate  accumulate="none" additive="replace" attributeName="display" begin="globoalto.mouseover" calcMode="linear" dur="0.2s" fill="freeze" from="none" restart="always" to="block">
	</animate>
<animate  accumulate="none" additive="replace" attributeName="display" begin="globoalto.mouseout" calcMode="linear" dur="0.5s" fill="freeze" from="block" restart="always" to="none">
	</animate>
<animate  accumulate="none" additive="replace" attributeName="display" begin="globoidioma.mouseover" calcMode="linear" dur="0.2s" fill="freeze" from="none" restart="always" to="block">
	</animate>
<animate  accumulate="none" additive="replace" attributeName="display" begin="globoidioma.mouseout" calcMode="linear" dur="0.5s" fill="freeze" from="block" restart="always" to="none">
	</animate>
</svg>
