<?xml version="1.0" encoding="utf-8"?>
<!-- Generator: Adobe Illustrator 24.1.0, SVG Export Plug-In . SVG Version: 6.00 Build 0)  -->
<svg version="1.1" id="Capa_2" xmlns="http://www.w3.org/2000/svg" xmlns:xlink="http://www.w3.org/1999/xlink" x="0px" y="0px"
	 width="1900px" height="940px" viewBox="0 0 1900 940" style="enable-background:new 0 0 1900 940;" xml:space="preserve">
<style type="text/css">
	.st0{fill:none;stroke:#9D1FFF;stroke-width:3;stroke-miterlimit:10;}
	.st1{fill:none;stroke:#CCFF12;stroke-width:3;stroke-miterlimit:10;}
	.st2{fill:none;stroke:#2268CE;stroke-width:3.3582;stroke-miterlimit:10;}
	.st3{fill:none;stroke:#22FF71;stroke-width:3.3582;stroke-miterlimit:10;}
</style>
<path class="st0" d="M665.9,125.4c16.6,26,26.2,56.9,26.2,90.1c0,92.8-75.2,168-168,168s-168-75.2-168-168s75.2-168,168-168
	c53.2,0,100.7,24.7,131.5,63.4"/>
<path class="st1" d="M665.9,125.4c16.6,26,26.2,56.9,26.2,90.1c0,92.8-75.2,168-168,168s-168-75.2-168-168s75.2-168,168-168
	c53.2,0,100.7,24.7,131.5,63.4"/>
<path class="st2" d="M1590.8,700.5c3.7,23-45.2,48.5-110.1,57.3c-65.4,8.9-122.3-2.7-127-25.8l0.2,0c-3.7-23,45.2-48.5,110.1-57.3
	c65.4-8.9,122.3,2.7,127,25.8L1590.8,700.5z"/>
<path class="st3" d="M651.8,520.9c0,0,169-196.1,271-201.7s297.2,133.9,297.2,133.9s50.5,47.7,138.4-5.3s145.3-154.6,265.2-148.3
	c147.1,7.7,352.5,316.6,352.5,316.6"/>
</svg>
