<?xml version="1.0" encoding="utf-8"?>
<!-- Generator: Adobe Illustrator 25.4.1, SVG Export Plug-In . SVG Version: 6.00 Build 0)  -->
<svg version="1.1" id="Layer_2" xmlns="http://www.w3.org/2000/svg" xmlns:xlink="http://www.w3.org/1999/xlink" viewBox="0 0 1900 940">
<style type="text/css">
	.st0{opacity:0.85;}
	.st1{fill:#FFFFFF;stroke:#231F20;stroke-width:2;stroke-linecap:round;stroke-linejoin:round;stroke-miterlimit:10;}
	.st2{fill:none;}
	.st3{font-family:'SFComicScript';}
	.st4{font-size:11.8307px;}
	.st5{fill:#FFFFFF;fill-opacity:0;}
	.st6{fill:#F15A29;fill-opacity:0;}
	.st7{fill:#00AEEE;fill-opacity:0;}
	.st8{fill:#231F20;fill-opacity:0;}
	.st9{fill:#754C29;fill-opacity:0;}
	.st10{fill:#FFF200;fill-opacity:0;}
	.st11{fill:#662D91;fill-opacity:0;}
	.st12{fill:#2BB673;fill-opacity:0;}
	.st13{fill:#EC008C;fill-opacity:0;}
	.st14{fill:#ED1C24;fill-opacity:0;}
	.st15_{fill:#1D1D1B;stroke:#1D1D1B;stroke-width:6.4925;stroke-linecap:round;stroke-linejoin:round;stroke-miterlimit:10;}
	.st16_{font-family:'Base02';}
	.st17_{font-size:15.582px;}
	.st18_{fill:#DC1B20;}
	.st19{fill:#FF5A9D;fill-opacity:0;}
	.st20{fill:#10F99F;fill-opacity:0;}
</style>
<g>
	<g class="st0">
		<path class="st1" d="M1674.4,251.8l0.6,61.1c0,1.3,0.4,2.5,1.1,3.5l-1.5-66.2C1674.4,250.7,1674.4,251.2,1674.4,251.8z"/>
		<path class="st1" d="M1865.3,234.3l-101.2,5.9l-83.5,4.9c-3,0.2-5.5,2.4-6.1,5.2l1.5,66.2c1.1,1.8,3.1,3,5.3,3l110.4,4.1l72.7,2.7
			c3.7,0.1,6.7-2.7,6.9-6.3c0-0.1,0-0.2,0-0.3l0.9-74.7v-4.1C1872.4,237.1,1869.2,234,1865.3,234.3z"/>
	</g>
	<polygon class="st2" points="1866.6,324.5 1680.4,325.8 1680.2,254.5 1868.3,239.2 	"/>
	<text transform="matrix(0.9716 -2.140014e-02 9.000000e-05 1 1680.2795 265.963)" class="st3 st4">Wonder Woman Coaster es la primer</text>
	<text transform="matrix(0.9716 -2.140014e-02 9.000000e-05 1 1680.2809 280.3634)" class="st3 st4">montaña rusa con un ascensor vertical </text>
	<text transform="matrix(0.9716 -2.140014e-02 9.000000e-05 1 1680.3798 294.661)" class="st3 st4">de 90 grados con una altura de más </text>
	<text transform="matrix(0.9716 -2.140014e-02 9.000000e-05 1 1680.3811 309.0614)" class="st3 st4">de 34 metros en América Latina</text>
</g>
<g>
	<g class="st0">
		<path class="st1" d="M1382.3,82.1l0.6,61.1c0,1.3,0.4,2.5,1.1,3.5l-1.5-66.2C1382.4,81.1,1382.3,81.6,1382.3,82.1z"/>
		<path class="st1" d="M1573.3,64.6l-101.2,5.9l-83.5,4.9c-3,0.2-5.5,2.4-6.1,5.2l1.5,66.2c1.1,1.8,3.1,3,5.3,3l110.4,4.1l72.7,2.7
			c3.7,0.1,6.7-2.7,6.9-6.3c0-0.1,0-0.2,0-0.3l0.9-74.7v-4.1C1580.4,67.5,1577.1,64.4,1573.3,64.6z"/>
	</g>
	<polygon class="st2" points="1574.5,143.9 1388.3,145.1 1388.1,82.9 1576.3,69.5 	"/>
	<text transform="matrix(0.9716 -2.140014e-02 9.000000e-05 1 1388.1577 96.3042)" class="st3 st4">Con una altura de 74 metros </text>
	<text transform="matrix(0.9716 -2.140014e-02 9.000000e-05 1 1388.1589 110.7041)" class="st3 st4">Supergirl Sky Flight ofrece vistas </text>
	<text transform="matrix(0.9716 -2.140014e-02 9.000000e-05 1 1388.2579 125.0023)" class="st3 st4">panorámicas mientras sobrevuelas el </text>
	<text transform="matrix(0.9716 -2.140014e-02 9.000000e-05 1 1388.2592 139.4022)" class="st3 st4">parque por casi 2 minutos</text>
</g>
<g>
	<g class="st0">
		<path class="st1" d="M1294.1,281.9l0.6,61.1c0,1.3,0.4,2.5,1.1,3.5l-1.5-66.2C1294.2,280.9,1294.1,281.4,1294.1,281.9z"/>
		<path class="st1" d="M1485.1,264.4l-101.2,5.9l-83.5,4.9c-3,0.2-5.5,2.4-6.1,5.2l1.5,66.2c1.1,1.8,3.1,3,5.3,3l110.4,4.1l72.7,2.7
			c3.7,0.1,6.7-2.7,6.9-6.3c0-0.1,0-0.2,0-0.3l0.9-74.7V271C1492.2,267.2,1488.9,264.1,1485.1,264.4z"/>
	</g>
	<polygon class="st2" points="1486.3,343.7 1300.1,344.9 1299.9,282.7 1488.1,269.3 	"/>
	<text transform="matrix(0.9716 -2.140014e-02 9.000000e-05 1 1299.9866 296.0757)" class="st3 st4">Batman The Ride, Prepárate a subir a </text>
	<text transform="matrix(0.9716 -2.140014e-02 9.000000e-05 1 1299.9879 310.4751)" class="st3 st4">32 metros y rodar libremente hasta </text>
	<text transform="matrix(0.9716 -2.140014e-02 9.000000e-05 1 1300.0868 324.7727)" class="st3 st4">velocidades de 80 kilómetros por </text>
	<text transform="matrix(0.9716 -2.140014e-02 9.000000e-05 1 1300.0881 339.1731)" class="st3 st4">hora colgado en el aire</text>
</g>
<g>
	<g class="st0">
		<path class="st1" d="M1373.5,424.4l0.6,61.1c0,1.3,0.4,2.5,1.1,3.5l-1.5-66.2C1373.5,423.4,1373.5,423.9,1373.5,424.4z"/>
		<path class="st1" d="M1564.5,406.9l-101.2,5.9l-83.5,4.9c-3,0.2-5.5,2.4-6.1,5.2l1.5,66.2c1.1,1.8,3.1,3,5.3,3l110.4,4.1l72.7,2.7
			c3.7,0.1,6.7-2.7,6.9-6.3c0-0.1,0-0.2,0-0.3l0.9-74.7v-4.1C1571.5,409.8,1568.3,406.7,1564.5,406.9z"/>
	</g>
	<polygon class="st2" points="1565.6,486.2 1379.5,487.4 1379.3,425.2 1567.5,411.8 	"/>
	<text transform="matrix(0.9716 -2.140014e-02 9.000000e-05 1 1379.3544 438.5934)" class="st3 st4">Crazanity, el péndulo giratorio más </text>
	<text transform="matrix(0.9716 -2.140014e-02 9.000000e-05 1 1379.3556 452.9938)" class="st3 st4">alto del mundo alcanzando los 50 </text>
	<text transform="matrix(0.9716 -2.140014e-02 9.000000e-05 1 1379.4546 467.2915)" class="st3 st4">metros sobre el aire a 12okm por </text>
	<text transform="matrix(0.9716 -2.140014e-02 9.000000e-05 1 1379.4558 481.6919)" class="st3 st4">hora</text>
</g>
<g>
	<g class="st0">
		<path class="st1" d="M1383.1,675.9l0.6,61.1c0,1.3,0.4,2.5,1.1,3.5l-1.5-66.2C1383.1,674.9,1383.1,675.4,1383.1,675.9z"/>
		<path class="st1" d="M1574.1,658.4l-101.2,5.9l-83.5,4.9c-3,0.2-5.5,2.4-6.1,5.2l1.5,66.2c1.1,1.8,3.1,3,5.3,3l110.4,4.1l72.7,2.7
			c3.7,0.1,6.7-2.7,6.9-6.3c0-0.1,0-0.2,0-0.3l0.9-74.7V665C1581.1,661.3,1577.9,658.2,1574.1,658.4z"/>
	</g>
	<polygon class="st2" points="1575.2,737.7 1389.1,738.9 1388.9,676.7 1577.1,663.3 	"/>
	<text transform="matrix(0.9716 -2.140014e-02 9.000000e-05 1 1388.9547 690.0954)" class="st3 st4">Boomerang acelera hasta alcanzar la </text>
	<text transform="matrix(0.9716 -2.140014e-02 9.000000e-05 1 1388.9561 704.4958)" class="st3 st4">energía necesaria para hacer los giros </text>
	<text transform="matrix(0.9716 -2.140014e-02 9.000000e-05 1 1389.0549 718.7934)" class="st3 st4">y subir hasta los 37 metros para </text>
	<text transform="matrix(0.9716 -2.140014e-02 9.000000e-05 1 1389.0563 733.1938)" class="st3 st4">luego hace el recorrido en reversa</text>
</g>
<g>
	<g class="st0">
		<path class="st1" d="M626,678.5l0.6,61.1c0,1.3,0.4,2.5,1.1,3.5l-1.5-66.2C626,677.5,626,678,626,678.5z"/>
		<path class="st1" d="M816.9,661l-101.2,5.9l-83.5,4.9c-3,0.2-5.5,2.4-6.1,5.2l1.5,66.2c1.1,1.8,3.1,3,5.3,3l110.4,4.1L816,753
			c3.7,0.1,6.7-2.7,6.9-6.3c0-0.1,0-0.2,0-0.3l0.9-74.7v-4.1C824,663.9,820.8,660.8,816.9,661z"/>
	</g>
	<polygon class="st2" points="818.1,742.3 632,743.5 631.8,679.7 819.9,666 	"/>
	<text transform="matrix(0.9716 -2.140014e-02 9.000000e-05 1 631.8109 692.7026)" class="st3 st4">Medusa Steel Coaster, tu caída será de </text>
	<text transform="matrix(0.9716 -2.140014e-02 9.000000e-05 1 631.8123 707.103)" class="st3 st4">36m y te impulsará a una velocidad </text>
	<text transform="matrix(0.9716 -2.140014e-02 9.000000e-05 1 631.9111 721.4006)" class="st3 st4">inimaginable. En su remodelación </text>
	<text transform="matrix(0.9716 -2.140014e-02 9.000000e-05 1 631.9124 735.8)" class="st3 st4">usaron 150, 630 tornillos</text>
</g>
<g>
	<g class="st0">
		<path class="st1" d="M694.2,491.8l0.6,61.1c0,1.3,0.4,2.5,1.1,3.5l-1.5-66.2C694.3,490.8,694.2,491.3,694.2,491.8z"/>
		<path class="st1" d="M885.2,474.3L784,480.2l-83.5,4.9c-3,0.2-5.5,2.4-6.1,5.2l1.5,66.2c1.1,1.8,3.1,3,5.3,3l110.4,4.1l72.7,2.7
			c3.7,0.1,6.7-2.7,6.9-6.3c0-0.1,0-0.2,0-0.3l0.9-74.7v-4.1C892.2,477.2,889,474.1,885.2,474.3z"/>
	</g>
	<polygon class="st2" points="886.3,553.6 700.2,554.8 700,492.7 888.2,479.2 	"/>
	<text transform="matrix(0.9716 -2.140014e-02 9.000000e-05 1 700.057 506.0086)" class="st3 st4">The Joker conjunta varios juegos en </text>
	<text transform="matrix(0.9716 -2.140014e-02 9.000000e-05 1 700.0583 520.4091)" class="st3 st4">uno, porque pocos juegos del mundo te </text>
	<text transform="matrix(0.9716 -2.140014e-02 9.000000e-05 1 700.1572 534.7067)" class="st3 st4">harán experimentar una diversidad de </text>
	<text transform="matrix(0.9716 -2.140014e-02 9.000000e-05 1 700.1585 549.1071)" class="st3 st4">movimientos</text>
</g>
<g>
	<g class="st0">
		<path class="st1" d="M955.6,342.2l0.6,61.1c0,1.3,0.4,2.5,1.1,3.5l-1.5-66.2C955.6,341.2,955.6,341.7,955.6,342.2z"/>
		<path class="st1" d="M1146.5,324.7l-101.2,5.9l-83.5,4.9c-3,0.2-5.5,2.4-6.1,5.2l1.5,66.2c1.1,1.8,3.1,3,5.3,3l110.4,4.1l72.7,2.7
			c3.7,0.1,6.7-2.7,6.9-6.3c0-0.1,0-0.2,0-0.3l0.9-74.7v-4.1C1153.6,327.5,1150.4,324.5,1146.5,324.7z"/>
	</g>
	<polygon class="st2" points="1147.7,404 961.6,405.2 961.4,343 1149.5,329.6 	"/>
	<text transform="matrix(0.9716 -2.140014e-02 9.000000e-05 1 961.4348 356.3812)" class="st3 st4">Triple Torre Kilahuea, tt llevará a más </text>
	<text transform="matrix(0.9716 -2.140014e-02 9.000000e-05 1 961.436 370.7816)" class="st3 st4">de 60 metros de altura en cuestión de </text>
	<text transform="matrix(0.9716 -2.140014e-02 9.000000e-05 1 961.534 385.0793)" class="st3 st4">segundos antes de experimentar una </text>
	<text transform="matrix(0.9716 -2.140014e-02 9.000000e-05 1 961.5353 399.4797)" class="st3 st4">vertiginosa caída libre</text>
</g>
<g>
	<g class="st0">
		<path class="st1" d="M943.2,112.2l0.6,61.1c0,1.3,0.4,2.5,1.1,3.5l-1.5-66.2C943.3,111.2,943.2,111.7,943.2,112.2z"/>
		<path class="st1" d="M1134.2,94.7l-101.2,5.9l-83.5,4.9c-3,0.2-5.5,2.4-6.1,5.2l1.5,66.2c1.1,1.8,3.1,3,5.3,3l110.4,4.1l72.7,2.7
			c3.7,0.1,6.7-2.7,6.9-6.3c0-0.1,0-0.2,0-0.3l0.9-74.7v-4.1C1141.3,97.6,1138.1,94.5,1134.2,94.7z"/>
	</g>
	<polygon class="st2" points="1135.4,174 949.2,175.2 949,113.1 1137.2,99.6 	"/>
	<text transform="matrix(0.9716 -2.140014e-02 9.000000e-05 1 949.0938 126.4124)" class="st3 st4">JUSTICE LEAGUE: Battle for </text>
	<text transform="matrix(0.9716 -2.140014e-02 9.000000e-05 1 949.0951 140.8127)" class="st3 st4">Metropolis, un viaje completamente </text>
	<text transform="matrix(0.9716 -2.140014e-02 9.000000e-05 1 949.194 155.1104)" class="st3 st4">sensorial a través de vehículos  para </text>
	<text transform="matrix(0.9716 -2.140014e-02 9.000000e-05 1 949.1953 169.5103)" class="st3 st4">combatir a Lex Luthor y Joker</text>
</g>
<g>
	<g class="st0">
		<path class="st1" d="M594.3,306l0.6,61.1c0,1.3,0.4,2.5,1.1,3.5l-1.5-66.2C594.4,305,594.3,305.5,594.3,306z"/>
		<path class="st1" d="M785.3,288.5l-101.2,5.9l-83.5,4.9c-3,0.2-5.5,2.4-6.1,5.2l1.5,66.2c1.1,1.8,3.1,3,5.3,3l110.4,4.1l72.7,2.7
			c3.7,0.1,6.7-2.7,6.9-6.3c0-0.1,0-0.2,0-0.3l0.9-74.7v-4.1C792.4,291.4,789.1,288.3,785.3,288.5z"/>
	</g>
	<polygon class="st2" points="786.4,367.8 600.3,369 600.1,306.9 788.3,293.5 	"/>
	<text transform="matrix(0.9716 -2.140014e-02 9.000000e-05 1 600.1698 320.2181)" class="st3 st4">EN Superman El Último Escape la </text>
	<text transform="matrix(0.9716 -2.140014e-02 9.000000e-05 1 600.1711 334.6185)" class="st3 st4">altura de la caída más alta es de 65 </text>
	<text transform="matrix(0.9716 -2.140014e-02 9.000000e-05 1 600.27 348.9162)" class="st3 st4">metros, equivalente a la altura de un </text>
	<text transform="matrix(0.9716 -2.140014e-02 9.000000e-05 1 600.2713 363.3166)" class="st3 st4">edificio de 20 pisos</text>
</g>
<g>
	<g class="st0">
		<path class="st1" d="M972.8,811l0.6,61.1c0,1.3,0.4,2.5,1.1,3.5l-1.5-66.2C972.9,810,972.8,810.5,972.8,811z"/>
		<path class="st1" d="M1163.8,793.5l-101.2,5.9l-83.5,4.9c-3,0.2-5.5,2.4-6.1,5.2l1.5,66.2c1.1,1.8,3.1,3,5.3,3l110.4,4.1l72.7,2.7
			c3.7,0.1,6.7-2.7,6.9-6.3c0-0.1,0-0.2,0-0.3l0.9-74.7v-4.1C1170.9,796.4,1167.7,793.3,1163.8,793.5z"/>
	</g>
	<polygon class="st2" points="1165,872.8 978.8,874 978.6,811.8 1166.8,798.4 	"/>
	<text transform="matrix(0.9716 -2.140014e-02 9.000000e-05 1 978.6984 825.1982)" class="st3 st4">The Dark Knight Coaster te llevará </text>
	<text transform="matrix(0.9716 -2.140014e-02 9.000000e-05 1 978.6997 839.5986)" class="st3 st4">mediante un ferry a través de pasillos </text>
	<text transform="matrix(0.9716 -2.140014e-02 9.000000e-05 1 978.7986 853.8962)" class="st3 st4">demenciales de giros, vueltas, subidas </text>
	<text transform="matrix(0.9716 -2.140014e-02 9.000000e-05 1 978.7999 868.2957)" class="st3 st4">imprevistas inmerso en la oscuridad</text>
</g>
<circle class="st5" cx="899.7" cy="439.3" r="21.9"/>
<circle class="st6" cx="1316.8" cy="505.7" r="21.3"/>
<circle class="st7" cx="682.9" cy="224.4" r="37.5"/>
<circle class="st8" cx="961.4" cy="903.1" r="23.9"/>
<circle class="st9" cx="1269.5" cy="360.6" r="24.6"/>
<circle class="st10" cx="1155.3" cy="224.4" r="23.7"/>
<circle class="st11" cx="1583.4" cy="91.8" r="9.3"/>
<circle class="st12" cx="1475.8" cy="616.3" r="24.9"/>
<circle class="st13" cx="594.3" cy="893.2" r="26.7"/>
<circle class="st14" cx="1028.4" cy="468.2" r="37.5"/>
<g>
	<text transform="matrix(1 0 0 1 979.0686 662.4241)"><tspan x="0" y="0" class="st15 st16 st17">arma nuestro rompecabezas</tspan><tspan x="22.6" y="18.7" class="st15 st16 st17">del festival del terror</tspan></text>
	<text transform="matrix(1 0 0 1 979.0686 662.4241)"><tspan x="0" y="0" class="st18 st16 st17">arma nuestro rompecabezas</tspan><tspan x="22.6" y="18.7" class="st18 st16 st17">del festival del terror</tspan></text>
</g>
<g id="globoalto">
	<path class="st19" d="M1606.5,76.1c20.8,15.4,23.4,47.9,1.8,63.5c-21.1,15.2-41.5,16-56.1,9.1c-18.7-8.8-32.8-41.8-7.3-65.3
		C1561,68.7,1587.5,62,1606.5,76.1z"/>
</g>
<g id="globoalto_00000100354451092802219300000002937145758560586146_">
	<path class="st20" d="M1745.1,140.9c25,18.6,28.2,57.7,2.2,76.5c-25.4,18.3-49.9,19.2-67.5,11c-22.6-10.6-39.5-50.3-8.8-78.6
		C1690.4,131.9,1722.2,123.9,1745.1,140.9z"/>
</g>
</svg>
