<?xml version="1.0" encoding="utf-8"?>
<!-- Generator: Adobe Illustrator 25.4.1, SVG Export Plug-In . SVG Version: 6.00 Build 0)  -->
<svg version="1.1" id="Capa_2" xmlns="http://www.w3.org/2000/svg" xmlns:xlink="http://www.w3.org/1999/xlink" x="0px" y="0px"
	 viewBox="0 0 1900 940" style="enable-background:new 0 0 1900 940;" xml:space="preserve">
<style type="text/css">
	.st0{fill:none;stroke:#9D1FFF;stroke-width:3;stroke-miterlimit:10;}
	.st1{fill:none;stroke:#22FF71;stroke-width:3.3582;stroke-miterlimit:10;}
	.st2{fill:none;stroke:#6E08FF;stroke-width:3.3582;stroke-miterlimit:10;}
	.st3{fill:none;stroke:#FF8150;stroke-width:3.3582;stroke-miterlimit:10;}
</style>
<path class="st0" d="M895.1,237.9c0,92.8-75.2,168-168,168s-168-75.2-168-168s75.2-168,168-168S895.1,145.1,895.1,237.9z"/>
<path class="st0" d="M895.1,237.9c0,92.8-75.2,168-168,168s-168-75.2-168-168s75.2-168,168-168S895.1,145.1,895.1,237.9z"/>
<path class="st0" d="M895.1,237.9c0,92.8-75.2,168-168,168s-168-75.2-168-168s75.2-168,168-168S895.1,145.1,895.1,237.9z"/>
<path class="st0" d="M895.1,237.9c0,92.8-75.2,168-168,168s-168-75.2-168-168s75.2-168,168-168S895.1,145.1,895.1,237.9z"/>
<path class="st0" d="M895.1,237.9c0,92.8-75.2,168-168,168s-168-75.2-168-168s75.2-168,168-168S895.1,145.1,895.1,237.9z"/>
<path class="st0" d="M895.1,237.9c0,92.8-75.2,168-168,168s-168-75.2-168-168s75.2-168,168-168S895.1,145.1,895.1,237.9z"/>
<path class="st0" d="M895.1,237.9c0,92.8-75.2,168-168,168s-168-75.2-168-168s75.2-168,168-168S895.1,145.1,895.1,237.9z"/>
<path class="st0" d="M895.1,237.9c0,92.8-75.2,168-168,168s-168-75.2-168-168s75.2-168,168-168S895.1,145.1,895.1,237.9z"/>
<path class="st0" d="M895.1,237.9c0,92.8-75.2,168-168,168s-168-75.2-168-168s75.2-168,168-168S895.1,145.1,895.1,237.9z"/>
<path class="st0" d="M895.1,237.9c0,92.8-75.2,168-168,168s-168-75.2-168-168s75.2-168,168-168S895.1,145.1,895.1,237.9z"/>
<path class="st0" d="M895.1,237.9c0,92.8-75.2,168-168,168s-168-75.2-168-168s75.2-168,168-168S895.1,145.1,895.1,237.9z"/>
<path class="st0" d="M895.1,237.9c0,92.8-75.2,168-168,168s-168-75.2-168-168s75.2-168,168-168S895.1,145.1,895.1,237.9z"/>
<path class="st0" d="M895.1,237.9c0,92.8-75.2,168-168,168s-168-75.2-168-168s75.2-168,168-168S895.1,145.1,895.1,237.9z"/>
<path class="st1" d="M694.9,670.8c5.3,31.7-49.8,67.2-122.9,79.3c-73.1,12.1-136.7-3.7-141.9-35.4c-5.3-31.7,49.8-67.2,122.9-79.3
	C626.1,623.3,689.7,639.1,694.9,670.8z"/>
<path class="st2" d="M1431.7,389c0,0,278.2,69.2,409.1-12.2c19-11.8,31.2-32.3,31.6-54.7c0.4-21.8-10-47.4-53.3-62.3
	c0,0-91.2-21.9-185.6,58.9c0,0-134.7,105.5-276.7,165.2"/>
<path class="st3" d="M1633.1,515.9c0,0-15.4,182.4-237.3,75.5"/>
</svg>
