<?xml version="1.0" encoding="utf-8"?>
<!-- Generator: Adobe Illustrator 24.1.0, SVG Export Plug-In . SVG Version: 6.00 Build 0)  -->
<svg version="1.1" id="Layer_1" xmlns="http://www.w3.org/2000/svg" xmlns:xlink="http://www.w3.org/1999/xlink" x="0px" y="0px"
	 width="535.9px" height="532.5px" viewBox="0 0 535.9 532.5" style="enable-background:new 0 0 535.9 532.5;" xml:space="preserve"
	>
<style type="text/css">
	.st0{fill:none;}
	.st1{fill:#FF7EFF;}
	.st2{fill:#6256E6;}
	.st3{fill:#FF9F6E;}
	.st4{fill:#00FFC9;}
</style>
<g>
	<path class="st0" d="M157.4,248.4c2.3-2.3,5.1-4.4,8.8-6.2c7-3.4,14.1-5,21.1-4.8c0.2-1.3,0.4-2.6,0.8-3.8
		c2.9-11.3,7.4-21.7,13.1-31.3c-6.9-7.6-14.5-11.2-23.5-11.4c-8.9,15.9-15.6,34.2-19.8,55L157.4,248.4z"/>
	<path class="st0" d="M264.7,364c10.7-7.2,24.5-3.8,39.4-0.2c0-17.4-0.1-33.4,0-49.3c0.1-20.4,2.7-23.1,23.2-23.3
		c10.1-0.1,20.1,0.1,30.2,0.4c2.1,0.1,4.3,1.1,6.2,1.6c2.5,23.2,7.9,37.6,17.6,45.3c2.2-2.3,4.3-4.7,6.3-7.2
		c-12.9-6-16.6-21.4-13.4-50.4c-14.6,0-28.9,0-43.2,0c-26.6,0-26.8-0.2-27-27.5c0-10.5,0-21,0-32.4c16.4-1.2,33.4,1.8,42.7-12.9
		c5.7-9,10.2-20.3,10.7-30.8c0.1-2.4,0-4.6-0.1-6.8c-2.2-0.5-3.9-1.2-4.3-1.4c-12.3-5.7-24.1-9.2-36.4-10.7
		c-20.4-2.5-40.6,1.3-58.5,9.8c2.8,7.8,5.5,15.4,8.1,23.1c5.7,16.3,4.5,19.2-11.4,25.3c-12.4,4.8-25.1,9-37.5,13.4
		c-2.6-6-5.2-11.2-7.8-15.8c-3.8,7.1-7,14.7-9,22.8c-0.1,0.5-0.2,0.9-0.3,1.4c3.2,0,6.1,0,9.1,0c11-0.3,19.8,4.7,24.9,13.9
		c5.1,9.1,4.3,18.7-2.3,28.5c-2.4,3.5-4.7,7-7,10.5c14.6,0,27.9-0.1,41,0c19.7,0.2,22.1,2.7,22.3,22.4c0.1,12.8,0,25.5,0,39.3
		c-13.7-0.9-27-1.8-36.4,5.7c1,0.3,2,0.7,2.6,1C258,361.3,261.3,362.7,264.7,364z"/>
	<path class="st0" d="M249.4,143.1c1.5,4.2,3,8.3,4.4,12.4c19.6-9,41.8-12.8,64.5-10c11.7,1.4,23.2,4.7,34.8,9.5
		c-6.9-12-22.2-18.3-48.6-21.4c0-5.3-0.1-10.7-0.1-16.1c-4.6,0.1-9.2,0.5-13.9,1.1C285.6,138.9,267,139.8,249.4,143.1z"/>
	<path class="st0" d="M155,251.2l-9.4,0c-4,0-8,0-12,0c0.7,2.8,1.5,5.7,2.4,8.7c-6.2,2.2-12.4,4.6-18.6,6.9c0.4,2.3,1.5,4.6,3.2,7.2
		c3.9,5.7,7.7,11.5,11.5,17.2c6.8,0,13.7,0.1,20.9,0.1C150.3,276,147.4,261.7,155,251.2z"/>
	<path class="st0" d="M145.6,238.3l0.8,0c3.7-16.3,8.9-31.1,15.3-44.5c-1.3,0.4-2.5,0.8-3.8,1.3c-21,7.8-29.5,20.5-26.7,43.3
		c0.6,0,1.1-0.1,1.6-0.1C137.1,238.3,141.3,238.3,145.6,238.3z"/>
	<path class="st0" d="M255.7,374.1c-2.2-0.9-4.5-1.8-6.6-2.9c-0.3-0.2-0.9-0.3-1.4-0.4c-2.6,2.1-5.2,4.3-7.8,6.5
		c-2.1,5.2-3.5,10.7-4.1,16c4.4,2.9,9.2,5.4,14.4,7.7C248.8,391.9,250.6,382.8,255.7,374.1z"/>
	<path class="st0" d="M434.5,324.7c-7.7,5.9-19.3,9.5-29.2,9.6c-1.3,0-2.6,0-3.8-0.1c-2.5,3.5-5.2,6.9-8.1,10.1
		c4.3,1.1,9.1,1.6,14.5,1.5c8.4-0.2,15.3-1.6,21-4.5c4.1-6.9,7.7-14.3,10.9-22.2C438.5,321.1,436.8,323,434.5,324.7z"/>
	<path class="st0" d="M223.1,258.5c-1.5-2.7-3.5-4.6-6-5.8c4.1,6.2,4.7,13.6,3.6,21.8c0.2-0.3,0.4-0.7,0.7-1
		C225.2,267.7,225.7,263.3,223.1,258.5z"/>
	<path class="st0" d="M443,310.3c2.9-8.6,5.5-17.6,7.5-27.3l0.4-2.1c-3.6,0-7.2,0-10.9,0C441.1,291.1,444.2,301.4,443,310.3z"/>
	<path d="M217.1,252.7c-2.1-1-4.6-1.5-7.6-1.5c-3.6,0-7.2,0-11.1,0l-13.2,0l1.2-7.5c0.2-1.2,0.3-2.3,0.5-3.4c0.1-1,0.3-1.9,0.4-2.9
		c-7-0.2-14.1,1.4-21.1,4.8c-3.7,1.8-6.6,3.9-8.8,6.2l-0.6,2.7l-1.8,0c-7.7,10.5-4.7,24.8-1.9,40.1c-7.2,0-14.1,0-20.9-0.1
		c2.2,3.3,4.4,6.5,6.5,9.8c6.5,9.8,13,19.6,19.6,29.3c3.7,5.4,8.1,8.4,12.5,8.5h0c4.3,0,8.7-2.9,12.3-8.2
		c7.4-10.9,14.7-21.9,22-32.8c5.1-7.7,10.3-15.5,15.5-23.2C221.8,266.3,221.2,259,217.1,252.7z"/>
	<path d="M229.2,386.6l-1.2,1.1c2.4,2,5,3.9,7.8,5.7c0.6-5.3,2-10.8,4.1-16C236.3,380.4,232.7,383.5,229.2,386.6z"/>
	<path d="M393.4,344.3c-24.8,27.4-61.9,43.3-100.5,39.5c-12.7-1.3-25.2-4.6-37.3-9.7c-5.1,8.6-6.8,17.8-5.4,26.9
		c23.9,10.3,54.8,13.3,83,6.8c43.7-10,75.4-32,95.7-66.5c-5.7,2.9-12.6,4.4-21,4.5C402.5,345.9,397.7,345.4,393.4,344.3z"/>
	<g>
		<path class="st1" d="M510.5,392.8c0-28-0.2-56,0-84c0-8.8-2.1-16.4-12-16.9c-12.3-0.6-24.6-0.4-36.8-0.3
			c-16.2,70-58.4,113.3-125.6,128.7c-11.2,2.6-22.7,3.8-34.1,3.8c-16.1,0-31.8-2.6-46-7.3c10.6,18.1,28.2,15.2,48.2,10.4
			c0,18.8-0.1,34.9,0,51.1c0.2,17,2.9,20.1,19.2,20.1c56,0.2,112,0.2,168,0c16.5-0.1,19-2.8,19.1-20
			C510.6,449.9,510.5,421.4,510.5,392.8z"/>
		<path class="st1" d="M381.4,338.5c-9.8-7.8-15.1-22.1-17.6-45.3c-2-0.5-4.1-1.5-6.2-1.6c-10.1-0.3-20.1-0.5-30.2-0.4
			c-20.5,0.2-23.2,2.9-23.2,23.3c-0.1,16,0,32,0,49.3c-14.9-3.6-28.7-7-39.4,0.2c9.6,3.7,19.4,6,29.5,7
			C327.4,374.3,359.4,361.3,381.4,338.5z"/>
	</g>
	<g>
		<path class="st2" d="M107.2,252.9c4.7-9.2,12.8-14.1,24-14.5c-2.8-22.8,5.7-35.5,26.7-43.3c1.3-0.5,2.6-0.9,3.8-1.3
			c21.6-44.8,58.6-73.3,110.5-84.9c6.6-1.5,13.2-2.5,19.6-3.2c-0.6-12-6-22.6-16.3-30.5c-17.3-13.3-32.4-2.8-48,8.3
			c-6.8-18.3-12.7-35-19.2-51.6c-5.1-13-8.8-14.9-21.8-10.2c-53.7,19.4-107.4,39-161,58.8c-14,5.2-15.3,8.2-10.2,22.9
			c6.5,19.1,13.6,37.9,20.5,56.9c12.5,34.2,25,68.4,37.4,102.6c3.1,8.4,6.8,16.6,17.7,13.3c4.9-1.5,9.7-3.2,14.5-4.9
			C103.6,264.9,104.2,258.8,107.2,252.9z"/>
		<path class="st2" d="M201.3,202.4c12.4-20.7,30.9-36.9,52.5-46.8c-1.5-4.1-2.9-8.2-4.4-12.4c17.6-3.4,36.2-4.2,41.1-24.4
			c-5.1,0.6-10.3,1.5-15.5,2.7c-44.3,9.9-76.8,33.3-97.3,69.6C186.8,191.2,194.4,194.8,201.3,202.4z"/>
		<path class="st2" d="M209.6,214.1c2.7,4.6,5.2,9.8,7.8,15.8c12.4-4.4,25.1-8.6,37.5-13.4c15.9-6.1,17.1-9,11.4-25.3
			c-2.7-7.7-5.4-15.3-8.1-23.1C237.8,177.9,220.5,194,209.6,214.1z"/>
	</g>
	<path d="M133.7,251.2c-0.3,0-0.6,0-1,0c-0.1,0-0.2,0-0.4,0c-6.8,0-11,2.3-13.7,7.6c-1.4,2.7-1.7,5.3-1.1,8
		c6.2-2.3,12.4-4.6,18.6-6.9C135.2,256.8,134.4,254,133.7,251.2z"/>
	<path d="M434.5,324.7c2.3-1.8,4-3.7,5.3-5.7c1.1-2.8,2.2-5.8,3.2-8.7c1.2-8.9-1.9-19.2-3-29.4c3.7,0,7.3,0,10.9,0l0.6-3.1l11.5,0
		c4.4,0,8.8,0.1,13.1-0.1c6.4-0.2,11.4-2.8,13.6-7.2c2.2-4.2,1.6-9.6-1.8-14.8c-11.4-17.6-24-36.5-38.5-57.7
		c-3.4-5.1-7.8-7.9-12.1-7.9c0,0,0,0,0,0c-4.2,0-8.3,2.6-11.6,7.4c-12.8,18.6-25.9,38.3-39,58.4c-3.2,5-3.8,10.3-1.6,14.5
		c2.2,4.3,7,6.9,13.1,7.2c3.7,0.1,7.4,0.1,11.3,0.1l13.5,0l-1.3,9.7c-0.2,1.3-0.3,2.2-0.5,3.1c-3.4,16.1-10.3,30.8-19.6,43.7
		c1.2,0.1,2.5,0.1,3.8,0.1C415.3,334.2,426.8,330.7,434.5,324.7z"/>
	<g>
		<path class="st3" d="M353.1,155.1c1.8,0.8,3.6,1.5,5.4,2.3c0.7,0.3,1.6,0.6,2.3,0.7c6.2-5,12.2-10.3,18.6-15.8l1-0.9
			c-22.6-16.5-48.1-24.3-76-23.6c0.1,5.4,0.1,10.7,0.1,16.1C330.9,136.8,346.2,143.1,353.1,155.1z"/>
		<path class="st3" d="M394.6,136l5.9,4.8l-12.7,11.1c-6.8,6-13.3,11.7-20.2,17.1c-3.1,2.5-7.2,2.2-10.3,1.5
			c0.1,2.2,0.2,4.4,0.1,6.8c-0.5,10.5-5,21.8-10.7,30.8c-9.2,14.7-26.3,11.7-42.7,12.9c0,11.4,0,21.9,0,32.4
			c0.1,27.3,0.3,27.5,27,27.5c14.3,0,28.6,0,43.2,0c-3.2,29,0.5,44.4,13.4,50.4c9.4-11.7,16.5-25.4,20.2-40.5c-3.6,0-6.9,0-10.3-0.1
			c-10.7-0.4-19.6-5.7-24-14.1c-4.3-8.3-3.5-18.6,2.3-27.4c13.1-20.2,26.3-40,39.2-58.7c5.8-8.4,13.7-13,22.2-13c0,0,0,0,0.1,0
			c8.6,0,16.9,4.9,22.7,13.5c14.5,21.3,27.2,40.3,38.7,57.9c6,9.2,6.8,19.3,2.4,27.8c-0.7,1.4-1.6,2.7-2.6,3.9
			c9.8-1,11.7-4.7,11.8-17.7c0.2-56.6,0.2-113.1,0-169.7c0-16-2.5-18.5-18.6-18.6c-28-0.2-56-0.1-84-0.1c-28.6,0-57.1,0-85.7,0
			c-8.4,0-16.8,1-17.3,11.4c-0.3,6.3-0.4,12.6-0.4,18.9C337.8,104,368,114.4,394.6,136z"/>
	</g>
	<path d="M155,251.2l1.8,0l0.6-2.7C156.5,249.3,155.7,250.2,155,251.2z"/>
	<g>
		<path class="st4" d="M209.1,387.1l11.6-10.2c6.4-5.6,13.1-11.5,19.9-17c3.3-2.7,8-2.3,11.4-1.3c9.3-7.5,22.7-6.6,36.4-5.7
			c0-13.8,0.1-26.5,0-39.3c-0.2-19.7-2.6-22.2-22.3-22.4c-13.2-0.1-26.4-0.1-41,0c-3,4.5-6.1,9.1-9.1,13.6
			c-7.3,11-14.6,22-22.1,32.9c-6.1,8.9-14.2,13.8-22.9,13.8c0,0,0,0,0,0c-8.8,0-17-5-23.2-14.1c-6.6-9.8-13.2-19.6-19.7-29.4
			c-3.8-5.6-7.5-11.3-11.3-16.9c-4.5,0-8.9,0.1-13.4,0.1c-17.8,0.3-20.7,3.2-20.7,20.6c-0.1,55.5-0.1,110.9,0,166.4
			c0,17.8,2.4,20.2,20.6,20.3c54.9,0.1,109.8,0,164.7,0c3.4,0,7.4,0.8,9.9-0.7c3.9-2.3,9.5-6.2,9.7-9.7c1-16.5,0.5-33.1,0.5-49.5
			c-30.7-1.3-47.4-10.8-51.4-30c-8.6-4.6-16.4-10.1-22.7-16.7L209.1,387.1z"/>
		<path class="st4" d="M186.5,243.7l-1.2,7.5l13.2,0c3.8,0,7.5,0,11.1,0c3,0,5.5,0.5,7.6,1.5c-1.8-2.8-4.3-5.4-7.7-7.7
			c-7-4.8-14.4-7.3-22-7.5c-0.1,0.9-0.3,1.9-0.4,2.9C186.8,241.4,186.7,242.5,186.5,243.7z"/>
	</g>
</g>
<g id="SLFq7X.tif_1_">
	<g>
		<path d="M192.8,243.9c6,0,11.3,0,16.6,0c8.4-0.1,15.1,3.1,19.2,10.6c4.2,7.6,2.7,14.8-2,21.7c-12.8,19-25.3,38.1-38.2,57
			c-10.1,14.8-25.3,14.6-35.4-0.3c-12.7-18.7-25-37.6-37.7-56.3c-4.7-6.9-6.4-14.1-2.5-21.8c4.1-8,11.1-11.2,19.9-11.1
			c6.2,0.1,12.4,0,18.8,0c14.1-68.8,53.2-114.2,122-129.6c41.7-9.3,81.5-2.9,116.9,25.9c-9.3,8.1-17.8,15.8-26.8,23
			c-1.5,1.2-5.6,0.4-7.9-0.7c-12.2-5.7-24.8-9.6-38.3-11.3c-55.7-6.9-109.3,29.2-123.2,83.3C193.7,237.3,193.4,240.2,192.8,243.9z"
			/>
		<path d="M415.6,283.5c-6.5,0-12.1,0.2-17.7,0c-17.6-0.7-26.1-16.8-16.6-31.6c12.8-19.7,25.8-39.2,39.1-58.6
			c9.5-13.8,24.9-13.5,34.4,0.5c13.1,19.1,26,38.4,38.6,57.8c9.9,15.2,1.2,31.3-17.1,31.9c-6.5,0.2-13,0-19.6,0
			c-14.2,68.9-53.3,114-122.1,129.8c-44.2,10.1-92.3-1.8-116.2-26.6c8.7-7.6,17.3-15.3,26.3-22.5c1.4-1.1,5.1-0.5,7.1,0.5
			c13.2,6.5,27.1,10.6,41.7,12c56.7,5.6,109.6-32.8,121.3-88.2C415.1,287.3,415.2,286.1,415.6,283.5z"/>
	</g>
</g>
</svg>
